<svg id="Capa_1" data-name="Capa 1" xmlns="http://www.w3.org/2000/svg" viewBox="0 0 576 512"><path d="M235.65189,332.0097V328.63c.00008-123.7554.01984-170.54465-.03643-294.3-.0046-10.12571,3.32128-18.613,10.96907-25.28144,5.1843-4.52036,11.25764-7.31351,18.14571-7.40252,15.463-.19983,30.93746-.35971,46.39373.01788,15.52961.37939,28.68814,14.13371,29.102,29.67836.04114,1.546.03386,3.09358.03389,4.64043.0014,123.18545.00125,169.40477.00125,292.59023q0,1.32843,0,2.65683l.622.57024a20.55384,20.55384,0,0,1,1.62814-2.23023q73.33958-77.01525,146.70277-154.008c10.56745-11.09363,24.4524-14.14317,37.23649-8.15022a31.346,31.346,0,0,1,8.91206,6.30154c9.55512,9.5569,19.1595,19.06488,28.66525,28.67062,12.91568,13.0516,12.88855,32.16621-.08747,45.15882q-71.19272,71.28381-142.4357,142.51744-55.33761,55.36236-110.67177,110.72823c-7.15245,7.15975-15.70938,10.51266-25.81488,9.64138-7.87278-.67884-14.36026-4.18918-19.91686-9.75868q-42.60707-42.70609-85.30355-85.3229Q96.0338,331.59385,12.25613,247.8536C5.43432,241.0389,1.908,232.96007,2.34228,223.32078a29.402,29.402,0,0,1,8.58092-19.92206c10.01541-10.13194,20.03745-20.26066,30.22856-30.21471a31.00618,31.00618,0,0,1,43.74493.60969c15.838,16.27455,31.38788,32.82971,47.05546,49.27014q50.794,53.2995,101.57989,106.60658C234.09252,330.25873,234.62459,330.87414,235.65189,332.0097Z"/></svg>