<svg id="Capa_1" data-name="Capa 1" xmlns="http://www.w3.org/2000/svg" viewBox="0 0 292.79536 84.16129"><defs><style>.cls-1{fill:#fbfbfb;}.cls-2{fill:#0a0a0a;}.cls-3{fill:#f2f2f2;}</style></defs><rect class="cls-1" x="7.86403" y="20.68429" width="240.1482" height="47.31182" rx="23.65589"/><path class="cls-2" d="M247.08629,81.04147a38.17021,38.17021,0,0,1-15.75152-3.44162,6.32891,6.32891,0,0,0-3.74422-.54618,2.00446,2.00446,0,0,0-1.40146.6586.708.708,0,0,1-.72227.2201,4.10639,4.10639,0,0,1-1.92563-.66339,27.24179,27.24179,0,0,1-5.91093-5.38482,1.08824,1.08824,0,0,1-.05828-1.58332,1.95966,1.95966,0,0,0,.30628-1.88674,3.9178,3.9178,0,0,0-.87323-1.76921,18.34329,18.34329,0,0,1-3.75889-6.19506,1.11213,1.11213,0,0,0-.81924-.75369,5.081,5.081,0,0,1-2.76531-2.1648,17.00657,17.00657,0,0,1-3.01432-9.66578,11.06688,11.06688,0,0,1,.59938-5.024,5.08363,5.08363,0,0,1,1.32975-1.95334c.43653-.35246.35724-.83526.39771-1.27673a36.08782,36.08782,0,0,1,2.09628-9.3544,34.06634,34.06634,0,0,1,5.54412-9.75546,3.9509,3.9509,0,0,0,.36551-4.73238.87.87,0,0,1,.05892-1.14019,21.10048,21.10048,0,0,1,7.97636-6.21078,1.62667,1.62667,0,0,1,2.08974.31558c.74344.80374,1.82059.7026,2.80608.7388a8.58141,8.58141,0,0,0,3.183-.548A35.52929,35.52929,0,0,1,241.10033,7.134a5.1198,5.1198,0,0,0,4.212-2.61739,2.53736,2.53736,0,0,1,2.659-1.39017,23.52009,23.52009,0,0,1,8.78336,2.077c.62188.287,1.24782.56524,1.87112.84921a.84431.84431,0,0,1,.52255.834,3.87493,3.87493,0,0,0,2.313,3.57962,39.79909,39.79909,0,0,1,14.48756,11.76124,4.54325,4.54325,0,0,0,3.83089,1.60779,1.05034,1.05034,0,0,0,.44-.127c.91286-.44508,1.06525-.436,1.68646.36983a15.2972,15.2972,0,0,1,2.22454,4.56841,13.32089,13.32089,0,0,1,.79836,3.74892,1.78415,1.78415,0,0,1-.52455,1.44351c-.205.199-.36577.44279-.55394.65993a3.81762,3.81762,0,0,0-.85685,3.54191,35.743,35.743,0,0,1-25.8784,41.66793A37.844,37.844,0,0,1,247.08629,81.04147ZM222.19374,69.43083a3.35726,3.35726,0,0,1-.938,2.549c-.14584.17774-.48334.31685-.1373.633.29348.26817.51349.1652.73162-.07125,1.02364-1.1096,1.95835-2.25422,1.50936-3.93107-.03417-.12764-.05392-.2757.11351-.33217.14953-.05043.2552.04482.328.1595a1.64278,1.64278,0,0,1,.21448,1.02184,4.90869,4.90869,0,0,1-1.54725,3.14077c-.61134.62393-.61566.6197.05613,1.18568.813.6849.80133.67446,1.49434-.09714a5.46588,5.46588,0,0,1,2.94833-1.80026c.19486-.04169.43646-.06006.46645.2142.02567.2347-.19757.24909-.37084.28628a5.32688,5.32688,0,0,0-2.84069,1.84348c-.212.23731-.59184.47757-.12367.861.37086.30371.59942.58742,1.11709.08427a6.22149,6.22149,0,0,1,4.42644-1.81568c.1925-.00093.45446-.02731.45888.24782.00471.29239-.26781.238-.45209.23776a6.64115,6.64115,0,0,0-4.13337,1.57387c-.19145.14825-.597.27645-.28818.656.22594.2776.45428.54579.87713.23684a3.46565,3.46565,0,0,1,.83864-.39054,9.01881,9.01881,0,0,1,7.66691.75574,11.1537,11.1537,0,0,0,2.00234.87137,36.44222,36.44222,0,0,0,16.72342,1.10975A34.06277,34.06277,0,0,0,281.406,39.25107a6.26367,6.26367,0,0,1,1.73441-5.43681c.33389-.34846.22344-.51456.01026-.80991-.29144-.40381-.52168-.17751-.75633.02932a18.54486,18.54486,0,0,0-2.20241,2.20092c-.18565.22925-.32248.53675-.66985.60405-.0034-.38984-.01-.39375.085-.55476a7.82039,7.82039,0,0,1,2.56793-2.81236c.174-.10763.414-.16207.33256-.484-.19311-.763-.52621-.92474-1.18766-.52205a8.23984,8.23984,0,0,0-2.804,2.139c-.12643-.48121.15452-.75412.37342-1.02948a6.05958,6.05958,0,0,1,2.41243-1.81671c.34281-.14551.50965-.286.32337-.68277-.15652-.33345-.22651-.66065-.73787-.48544-.77288.26482-1.56412.47742-2.35213.69566-.19583.05423-.48518.19439-.57744-.08541-.08877-.26925.21146-.35192.40769-.42635.74358-.282,1.4925-.55013,2.24121-.81842.28372-.10166.54271-.17659.38686-.59547-.12756-.34286-.2744-.43529-.6358-.31718a5.82387,5.82387,0,0,1-3.14344-.03053c-.2671-.06-.5766-.08694-.71238-.40748.20808-.24414.46122-.10857.68323-.07848a8.00923,8.00923,0,0,0,2.95925-.20363c.37973-.09037.44665-.287.365-.62209-.08272-.33964-.192-.54841-.63013-.44444a5.35044,5.35044,0,0,1-2.68973-.08368c-.23416-.06484-.52341-.09978-.59286-.42232.22477-.10291.41137-.00242.60442.02967a8.76821,8.76821,0,0,0,2.64108.05284c.3892-.05313.43762-.27057.41844-.60067-.01916-.32982-.13933-.4813-.48564-.46356a4.88717,4.88717,0,0,1-1.31977-.08807,11.39191,11.39191,0,0,1-6.34228-3.97674,22.88437,22.88437,0,0,0-2.12495-2.18481,28.91437,28.91437,0,0,0-8.50234-5.55181,5.67912,5.67912,0,0,1-3.79878-5.00421c-.02171-.26522-.09594-.41315-.40253-.37095-.32223.04435-.3954.2358-.36151.51293a4.47522,4.47522,0,0,0,1.22859,3.191.20215.20215,0,0,1,.04337.32093,1.81794,1.81794,0,0,1-1.28076-1.08238,5.22624,5.22624,0,0,1-.41085-2.33048c.01705-.21745.14069-.52144-.25966-.55234-.34385-.02654-.47162.18725-.50153.48465a3.25668,3.25668,0,0,0,.42523,2.48073c.138.18035.35936.42739.054.62187-.29408.18728-.41958-.1218-.566-.29834a3.17805,3.17805,0,0,1-.46787-2.77554c.04552-.25885.259-.574-.23033-.65863-.40853-.07063-.72437-.06021-.84224.45412a18.653,18.653,0,0,0-.407,2.55074c-.01607.18428.03341.47628-.224.478-.27067.00182-.30009-.28482-.30845-.5069a5.67792,5.67792,0,0,1,.40115-2.66426c.234-.50171-.03557-.55573-.40981-.61117-.38956-.05772-.42035.23552-.5.48014a10.95364,10.95364,0,0,0-.25689,2.34071,2.41015,2.41015,0,0,1-.32238-1.72577c-.00229-.44923.5919-.8992.17633-1.264a3.4646,3.4646,0,0,0-1.315-.40342c-.04258-.01186-.08464-.02557-.12709-.03793a.49057.49057,0,0,0-.63845.30629,5.993,5.993,0,0,0-.72327,2.5279c-.008.209.03077.50933-.28773.4958-.30545-.013-.26317-.30511-.26464-.51834a4.85992,4.85992,0,0,1,.79315-2.563c.087-.14462.2959-.33856.15715-.46254a2.21161,2.21161,0,0,0-1.106-.40432c-.30955-.05905-.33835.2382-.41632.42394a3.62448,3.62448,0,0,1-1.61868,2.026c-.21366.10811-.45178.44924-.68151.13872-.2421-.32726.14992-.44751.3449-.58053a3.96443,3.96443,0,0,0,1.47448-1.74931c.10232-.242.28-.49253-.12212-.63992-.29939-.10974-.57675-.34032-.83752.11152a5.01558,5.01558,0,0,1-2.30184,1.93035,15.01408,15.01408,0,0,1-4.28925,1.33718,32.931,32.931,0,0,0-6.277,1.34626,14.95511,14.95511,0,0,1-4.23.72738,4.2203,4.2203,0,0,1-3.1161-1.06235c-.12293-.1055-.2282-.32829-.43115-.1437-.23628.2149-.008.35261.12235.48248a9.37942,9.37942,0,0,0,3.85552,2.4987c.24065.0737.71491.04918.60431.42125-.07995.26892-.50207.10334-.77421.05431a1.89987,1.89987,0,0,1-.31871-.09039,8.4584,8.4584,0,0,1-3.59371-2.52583c-.157-.18623-.282-.51029-.617-.21526-.31707.27931-.044.4733.1049.6689a17.72837,17.72837,0,0,0,1.99016,2.03793c.13011.12357.42613.23119.279.45356-.17091.25821-.408.028-.58012-.07054a6.55154,6.55154,0,0,1-2.15221-2.12377c-.22941-.34241-.45443-.40834-.7216-.10328-.24444.27911-.95491.31449-.53224.97078a8.11456,8.11456,0,0,0,2.4053,2.61389,3.42991,3.42991,0,0,1,.47007.36564.2943.2943,0,0,1,.09663.22314c-.0235.1219-.14184.15213-.26061.14716a1.28467,1.28467,0,0,1-.61521-.228,6.10514,6.10514,0,0,1-2.02073-1.97271c-.82244-1.3049-.828-1.2868-2.02335-.26567a.53368.53368,0,0,0-.13151.82747,24.22821,24.22821,0,0,0,2.03817,2.77768c.1457.17294.41823.403.16318.615-.23955.1991-.441-.08568-.597-.25662a15.28158,15.28158,0,0,1-1.71917-2.27064c-.68034-1.10082-.66756-1.08887-1.72939-.34162-.35981.2532-.41942.44411-.19278.84988a7.60256,7.60256,0,0,1,.95492,3.01341,1.99646,1.99646,0,0,1-.197,1.27933,3.04883,3.04883,0,0,1-.26537-1.19041,10.25857,10.25857,0,0,0-.89519-2.97118c-.06652-.16411-.13863-.35282-.34561-.3584a.52737.52737,0,0,0-.45377.23106c-.12836.19665.04322.37522.08271.56262a6.12938,6.12938,0,0,1-.95562,5.45227,34.403,34.403,0,0,0-7.39246,18.10326c-.02508.25858-.162.59874.29562.67086a5.34976,5.34976,0,0,1,3.68021,2.79775A17.948,17.948,0,0,1,216.922,54.91607a5.86453,5.86453,0,0,1-2.29209,4.52661c-.306.20968-.14045.40694-.03319.622a15.74435,15.74435,0,0,0,2.24158,3.19743,9.47891,9.47891,0,0,1,1.98863,5.10728,3.35345,3.35345,0,0,1-.23549,2.07494c-.1285.24929-.05517.40316.17613.54312.26738.16179.40565.01958.54471-.17493a6.71648,6.71648,0,0,0,1.38107-3.3271c.03648-.41653.01047-.8385.01373-1.258.00145-.18542.02887-.37444.24595-.41044.22307-.037.30848.14215.353.318a2.53191,2.53191,0,0,1,.05687.45867,6.32,6.32,0,0,1-1.43433,4.3726c-.20565.2663-.4696.48441-.00124.78563.38161.24543.64573.38581.97726-.08239A25.74766,25.74766,0,0,0,222.19374,69.43083Zm-14.666-21.93664a17.30942,17.30942,0,0,0,2.40309,8.704,7.56062,7.56062,0,0,0,2.01486,2.2609,1.8286,1.8286,0,0,0,2.79938-.46912,6.09578,6.09578,0,0,0,1.012-2.49667,17.10793,17.10793,0,0,0-1.94009-11.2,6.802,6.802,0,0,0-2.33647-2.65681,1.65461,1.65461,0,0,0-2.387.18779,2.84267,2.84267,0,0,0-.65972.90077A10.11551,10.11551,0,0,0,207.52773,47.49419Zm76.686-14.57485a.95723.95723,0,0,0,.07369-.766,16.34131,16.34131,0,0,0-.71531-2.96009,19.11573,19.11573,0,0,0-2.04409-4.51589c-.13466-.2056-.25677-.59109-.53773-.475-.2555.10561-.07163.47535-.08137.72854a.62525.62525,0,0,0,.01249.13189,20.52364,20.52364,0,0,0,2.58788,7.05351A1.84411,1.84411,0,0,0,284.21377,32.91934Z"/><path class="cls-3" d="M207.52773,47.49419a10.11551,10.11551,0,0,1,.90605-4.76909,2.84267,2.84267,0,0,1,.65972-.90077,1.65461,1.65461,0,0,1,2.387-.18779,6.802,6.802,0,0,1,2.33647,2.65681,17.10793,17.10793,0,0,1,1.94009,11.2,6.09578,6.09578,0,0,1-1.012,2.49667,1.8286,1.8286,0,0,1-2.79938.46912,7.56062,7.56062,0,0,1-2.01486-2.2609A17.30942,17.30942,0,0,1,207.52773,47.49419Zm6.99693,8.73046c.04983.02265.14045-.0111.12728.09741a1.501,1.501,0,0,1-1.85781,1.31816c-.22246-.04563-.4251-.22053-.685-.12606a1.70446,1.70446,0,0,0,2.821-.53083c.27517-.606.20043-.7385-.42649-.756a6.93692,6.93692,0,0,0,.48519-1.01177,12.80245,12.80245,0,0,0-.23963-6.67131c-.03373-.14628-.09978-.32337-.3051-.27158-.20242.05107-.17309.24476-.14834.38594.10676.609.25871,1.21093.34444,1.82243a9.44641,9.44641,0,0,1-.18016,4.781,1.84569,1.84569,0,0,1-2.55954,1.285c-.22429-.05712-.4687-.25583-.74172-.05063A2.31316,2.31316,0,0,0,214.52466,56.22465ZM214.19135,52.22a12.065,12.065,0,0,0-2.27757-6.92975c-.43308-.55414-.94862-1.12522-1.77551-.89954-.81477.22239-1.03514.95347-1.24669,1.66021a1.62591,1.62591,0,0,0-.04724.32749,12.32108,12.32108,0,0,0,1.9729,7.87817,2.256,2.256,0,0,0,1.00034.84448,1.4722,1.4722,0,0,0,2.1338-.97716A6.37188,6.37188,0,0,0,214.19135,52.22ZM210.12326,41.9259c.11462.20747.28814.20224.41917.27246a6.29336,6.29336,0,0,1,3.03816,3.34454c.06582.17056.00369.55286.33915.41731.23861-.09641.09443-.3879.02267-.59037a5.87323,5.87323,0,0,0-3.10035-3.35122A.78045.78045,0,0,0,210.12326,41.9259Z"/><path class="cls-3" d="M284.21377,32.91934a1.84411,1.84411,0,0,1-.70444-.803,20.52364,20.52364,0,0,1-2.58788-7.05351.62525.62525,0,0,1-.01249-.13189c.00974-.25319-.17413-.62293.08137-.72854.281-.11613.40307.26936.53773.475a19.11573,19.11573,0,0,1,2.04409,4.51589,16.34131,16.34131,0,0,1,.71531,2.96009A.95723.95723,0,0,1,284.21377,32.91934Z"/><path class="cls-2" d="M260.953,48.87909a10.7472,10.7472,0,0,1,6.78282,2.01554c3.49784,2.5319,3.156,6.82211-.68651,8.77828a10.27,10.27,0,0,1-11.07243-1.63939c-2.71176-2.599-2.23633-6.25712,1.04468-8.07112A8.58962,8.58962,0,0,1,260.953,48.87909Zm1.98485,10.70342c.24353-.015.66477-.02222,1.08142-.06974a6.77323,6.77323,0,0,0,4.07264-1.73623c.384-.36674.80075-.77024.57626-1.37741a5.53539,5.53539,0,0,0-2.189-2.91532,9.535,9.535,0,0,0-8.38459-1.05841,4.97613,4.97613,0,0,0-2.37687,1.62587,1.4817,1.4817,0,0,0-.17257,1.83128,6.12163,6.12163,0,0,0,2.06316,2.20448A9.79106,9.79106,0,0,0,262.93786,59.58251Z"/><path class="cls-2" d="M229.39606,44.01884l1.23026-.40846a10.52274,10.52274,0,0,1,3.71731-.18246l.26061-.0198.40063.07322.2518.04946a15.50705,15.50705,0,0,1,2.66188,1.15215l.9391.74054a2.86487,2.86487,0,0,0,.673.70049,7.51843,7.51843,0,0,1,1.62272,5.0616,8.18787,8.18787,0,0,1-3.53694,6.24351,9.021,9.021,0,0,1-8.91064,1.26326A7.20764,7.20764,0,0,1,224.739,48.7a26.448,26.448,0,0,1,1.395-2.40138,10.82126,10.82126,0,0,1,1.38569-1.247l.45276-.37936A5.2735,5.2735,0,0,0,229.39606,44.01884Zm2.95029,13.92344a8.11278,8.11278,0,0,0,5.24068-2.37863,6.30955,6.30955,0,0,0,.93-8.309A7.43284,7.43284,0,0,0,228.82864,45.66a9.01721,9.01721,0,0,0-3.97558,5.88278,2.48125,2.48125,0,0,0-.00337.85464C225.30589,55.68986,228.04225,57.91636,232.34635,57.94228Z"/><path class="cls-2" d="M220.08356,33.89563a2.8984,2.8984,0,0,1-3.16922-3.51012,8.6481,8.6481,0,0,1,2.6552-4.99615,16.6689,16.6689,0,0,1,2.39441-1.98542,4.88891,4.88891,0,0,1,3.37832-.91919,2.904,2.904,0,0,1,2.81345,3.33184,13.52124,13.52124,0,0,1-.65315,3.23832,6.86889,6.86889,0,0,1-2.48383,3.11356A10.21236,10.21236,0,0,1,220.08356,33.89563Zm.80786-1.35891c.13025.02961.20076.07068.25211.05372,2.2797-.75276,5.12392-2.97287,4.8327-6.20492-.11292-1.25317-.61157-1.73672-1.86156-1.66729-3.21766.17873-5.29152,3.0398-6.07288,5.297-.034.09819-.0502.23449.06772.29072.11816.05633.20458-.0368.2718-.12889.11714-.16048.221-.33226.351-.48133.162-.18573.28389-.62563.53759-.4545.2995.202-.10128.43711-.217.64729-.08461.15374-.21506.282-.30233.43458-.18621.32565-.37288.65265-.53093.99232a.63546.63546,0,0,0,.26307.86581c.30281.1603.36655-.23495.48821-.407.49715-.70326.963-1.42858,1.44922-2.1397.0928-.13572.2078-.34606.41306-.169.16361.14114-.00161.2904-.08184.40263-.47527.66489-.96873,1.3168-1.44212,1.983-.14827.20864-.46256.43218-.336.671.14814.27956.54467.237.84611.28253.30872.04657.47812-.15271.6349-.38605.45577-.67828.9231-1.34881,1.38684-2.02172a4.04886,4.04886,0,0,1,.31031-.42908c.10839-.11986.21939-.34434.42006-.18683.19.14915.02416.32185-.0623.46609-.09059.15114-.19966.29128-.30184.43538C221.77616,31.29055,221.34451,31.89836,220.89142,32.53672Z"/><path class="cls-2" d="M261.12462,47.39148a2.13209,2.13209,0,0,1-1.21659.1975,16.74061,16.74061,0,0,0-7.32738,1.85046,8.97828,8.97828,0,0,0-2.11106,1.5904,5.2257,5.2257,0,0,0-.532,6.95552,11.07969,11.07969,0,0,0,5.20718,3.84661,17.982,17.982,0,0,0,13.64133.20921,8.67712,8.67712,0,0,0,3.35662-2.31078,5.10877,5.10877,0,0,0,.56851-6.31732,10.3404,10.3404,0,0,0-4.04835-3.63211c-.30329-.16705-.94661-.25562-.64452-.77829.27925-.48315.71188-.03143,1.02949.13693a11.551,11.551,0,0,1,3.82142,3.12193,6.1301,6.1301,0,0,1-.85353,8.82362,12.66347,12.66347,0,0,1-6.73819,2.87353A18.79951,18.79951,0,0,1,252.514,61.53431a10.163,10.163,0,0,1-3.5168-3.45108,5.9415,5.9415,0,0,1,1.06678-7.77693,12.6546,12.6546,0,0,1,7.24565-3.12078,12.90871,12.90871,0,0,1,3.10918-.07679C260.66539,47.13439,260.96342,47.07931,261.12462,47.39148Z"/><path class="cls-2" d="M244.0064,32.41535a10.89271,10.89271,0,0,1-4.91717-1.16183,4.189,4.189,0,0,1-1.74123-1.48717,1.74305,1.74305,0,0,1,.40892-2.42187,4.72929,4.72929,0,0,1,2.37337-.93919,16.33448,16.33448,0,0,1,5.59589.20563,5.05069,5.05069,0,0,1,2.65054,1.41608,2.07747,2.07747,0,0,1-.32271,3.387A6.91714,6.91714,0,0,1,244.0064,32.41535Zm-2.256-4.93432a6.11734,6.11734,0,0,0-2.6677.27251c-.397.18181-.89754.34874-.9533.83265-.0572.49641.41791.73182.77436.98511a2.51863,2.51863,0,0,0,.51276.29989,11.2128,11.2128,0,0,0,6.873.58353c.44173-.10457,1.02954-.21486,1.10335-.71519.07426-.50334-.47238-.75261-.85947-.98226A8.09516,8.09516,0,0,0,241.75037,27.481Z"/><path class="cls-2" d="M237.04478,16.59239c.58362-.47812,1.26262-.5059,1.8427-.91216-1.405-.47264-2.39249.689-3.74245.70849.3961-.51948.94213-.53711,1.34531-.78728.19923-.12363.67974-.04091.52235-.46612-.13834-.37375-.46613-.34976-.83163-.20312a3.33843,3.33843,0,0,1-1.80415.44692,6.47261,6.47261,0,0,1,1.7426-.80271c.16971-.07934.48242-.08591.41253-.32882-.07321-.25444-.32485-.06175-.50173-.03484-.31133.04735-.79226.36479-.8907.07757-.1201-.35046.43235-.38561.71221-.48536,1.64945-.58792,3.00494-1.74019,4.65052-2.35583a5.931,5.931,0,0,1,3.299-.3583,1.60153,1.60153,0,0,1,1.3832.9875,1.55581,1.55581,0,0,1-.50212,1.61516,4.03643,4.03643,0,0,1-2.09306,1.20991,32.42105,32.42105,0,0,0-4.74049,1.6474C237.56721,16.671,237.56162,16.65787,237.04478,16.59239Zm1.77974-2.15106a5.00225,5.00225,0,0,0,3.12989-.9017c.21091-.17143.52747-.33546.41985-.67765-.10357-.32937-.43153-.42224-.73757-.48228a2.0153,2.0153,0,0,0-.91143.09822,8.18582,8.18582,0,0,0-2.12772.88078c-.35821.21639-.99484.37762-.88023.83127C237.826,14.62,238.45288,14.35694,238.82452,14.44133Z"/><path class="cls-2" d="M257.64744,67.48875a4.47016,4.47016,0,0,1,3.58786,1.71844,2.3294,2.3294,0,0,1,.36134,2.43837,2.46545,2.46545,0,0,1-2.07343,1.45422c-.25985.03689-.56451.07776-.64356-.283-.07623-.3479.17579-.45841.45076-.53362a3.4,3.4,0,0,0,.56965-.17209.96534.96534,0,0,0,.20491-1.71215,2.93422,2.93422,0,0,0-2.81226-.52122,1.08382,1.08382,0,0,0-.88379.88078,1.17781,1.17781,0,0,0,.53458,1.14073c.1393.10727.3042.18128.44366.28838.1729.13276.55875.17611.41372.47277-.12851.26283-.44768.08349-.663.01149a3.32421,3.32421,0,0,1-2.12261-1.95706,2.25329,2.25329,0,0,1,1.59624-3.05529A8.34081,8.34081,0,0,1,257.64744,67.48875Z"/><path class="cls-2" d="M260.41995,39.67137a3.69065,3.69065,0,0,1-3.70909-3.06164A4.41072,4.41072,0,0,1,261.2033,31.254a3.2769,3.2769,0,0,1,2.45895,1.38987c.14575.20451.36263.49159.13736.71434-.274.27088-.47-.07194-.65337-.22656a2.92256,2.92256,0,0,0-4.07982-.15095,3.50515,3.50515,0,0,0-.856,4.32186,2.76008,2.76008,0,0,0,4.37037.60009c.27062-.24531.54551-.78634.958-.3468.44931.47874-.10465.78475-.4073,1.05975A3.8646,3.8646,0,0,1,260.41995,39.67137Z"/><path class="cls-2" d="M240.52445,74.35477a6.18865,6.18865,0,0,1-3.7111-1.15864,1.40937,1.40937,0,0,1-.71084-1.46216c.15315-.63774.70315-.86437,1.28817-.995a5.85394,5.85394,0,0,1,4.75811,1.098,1.31976,1.31976,0,0,1,.65418,1.29347,1.28774,1.28774,0,0,1-1.08117,1.03874A9.45553,9.45553,0,0,1,240.52445,74.35477Z"/><path class="cls-2" d="M255.68089,13.05321a6.19861,6.19861,0,0,1,4.175,1.90625,1.35629,1.35629,0,0,1,.429,1.44047,1.32165,1.32165,0,0,1-1.34635.78324,6.28415,6.28415,0,0,1-4.43635-1.58073,2.42723,2.42723,0,0,1-.3512-.394,1.22315,1.22315,0,0,1,.8753-2.11371C255.22128,13.06454,255.42157,13.06862,255.68089,13.05321Zm2.722,3.36047c.06449-.01859.214-.01768.251-.08172.0718-.12443-.02181-.25755-.11762-.34678a4.48253,4.48253,0,0,0-2.88393-1.28453c-.13143-.0068-.276.00252-.34154.1434-.081.17408.02647.30029.15333.39134A6.18619,6.18619,0,0,0,258.40284,16.41368Z"/><path class="cls-2" d="M249.71794,55.18726a4.45664,4.45664,0,0,1,1.26487-2.98214,13.35506,13.35506,0,0,1,4.64754-3.22556c.19678-.0841.50467-.33542.6314-.0375.1142.26848-.27242.34288-.46392.4491a21.12885,21.12885,0,0,0-3.18626,2.01793,7.52871,7.52871,0,0,0-1.63144,1.7254,3.21524,3.21524,0,0,0,.46683,4.48573,12.67387,12.67387,0,0,0,5.18731,2.82612,36.99022,36.99022,0,0,0,4.30994,1.0482c.19411.04013.386.09312.5761.14979a.32059.32059,0,0,1,.2701.33136c-.01856.21089-.18386.28509-.37533.30207a.73188.73188,0,0,1-.19838-.00279,23.849,23.849,0,0,1-8.77128-3.02893,6.82213,6.82213,0,0,1-2.05864-1.94189A3.65873,3.65873,0,0,1,249.71794,55.18726Z"/><path class="cls-2" d="M273.15483,45.23155a3.03338,3.03338,0,0,1,.47949-1.80967,1.67622,1.67622,0,0,1,2.24488-.4103c.21313.15713.35536.3501.23848.62029-.10585.24472-.33084.25742-.56421.23282-1.04175-.10981-1.361.17215-1.27442,1.20859a3.5637,3.5637,0,0,0,1.39783,2.609c.61715.47938,1.13775.25783,1.27324-.51979a5.84663,5.84663,0,0,0-.165-1.70617c-.03315-.28247-.13461-.62457.2469-.72267.34094-.08765.5033.20783.63425.46639a3.39025,3.39025,0,0,1,.23123,2.69685,1.71588,1.71588,0,0,1-2.58865,1.06778A4.1505,4.1505,0,0,1,273.15483,45.23155Z"/><path class="cls-2" d="M274.17494,32.71451a2.12379,2.12379,0,0,1,2.08677,2.196,2.81258,2.81258,0,0,1-2.74257,2.617,2.07557,2.07557,0,0,1-1.99208-2.13458A2.7063,2.7063,0,0,1,274.17494,32.71451Zm.38267,2.336c-.05075-.47916-.10684-.98116-.68751-1.06541-.5889-.08546-.88567.32575-1.01944.82742a1.44971,1.44971,0,0,0,.27307,1.54016.60554.60554,0,0,0,.73673.09619A1.54162,1.54162,0,0,0,274.55761,35.05055Z"/><path class="cls-2" d="M259.26141,25.67932c.25231,0,.50462-.00049.75692.00008a3.55922,3.55922,0,0,0,2.165-.71692c.22023-.16246.5656-.33482.48854-.648-.07736-.31437-.45289-.30181-.73175-.33972a4.38036,4.38036,0,0,0-1.38685.019c-.23721.04345-.53016.127-.64389-.14948-.099-.24063.15984-.39184.32713-.521a4.1291,4.1291,0,0,1,3.69167-.77143,1.42065,1.42065,0,0,1,.825,2.30165c-.65128,1.02087-2.99118,2.18752-4.41779,1.45766-.35615-.18221-.74077-.30881-1.1123-.461Z"/><path class="cls-2" d="M215.38264,59.99878a.57321.57321,0,0,1,.27314-.53834,8.49138,8.49138,0,0,0,2.498-5.82849,19.52066,19.52066,0,0,0-3.02524-10.94927c-.17727-.30555-.36173-.60714-.53087-.9171a.273.273,0,0,1,.03452-.36464c.15411-.11963.2912-.03057.39961.094a2.03256,2.03256,0,0,1,.19489.2667,21.757,21.757,0,0,1,3.5154,9.81962,9.91263,9.91263,0,0,1-1.916,7.24868A3.39244,3.39244,0,0,1,215.38264,59.99878Z"/><path class="cls-2" d="M241.55064,70.6296a3.1813,3.1813,0,0,1-1.20165-.27993,8.36855,8.36855,0,0,0-3.86038-.3396c-.89112.14991-1.82043.39517-2.08913,1.377-.27666,1.01093.44751,1.67445,1.18738,2.17687a7.9585,7.9585,0,0,0,6.17979,1.30484c.08657-.01667.17-.04982.25667-.06559.19335-.03518.42278-.11193.51167.14167.10481.299-.15208.38995-.35562.45465a6.70434,6.70434,0,0,1-2.8873.19429,7.92719,7.92719,0,0,1-4.49463-1.92107,3.047,3.047,0,0,1-.86266-1.23773,1.86987,1.86987,0,0,1,.79464-2.30666c1.5993-1.123,5.298-.93683,6.7959.3454C241.54924,70.49425,241.53961,70.55392,241.55064,70.6296Z"/><path class="cls-2" d="M277.78062,49.9397a1.59427,1.59427,0,0,1-1.09.709,4.69344,4.69344,0,0,1-5.64862-3.45758,4.81516,4.81516,0,0,1,1.24865-5.18009,3.69309,3.69309,0,0,1,3.24456-.96372c.17359.02662.384.05336.34745.3022-.03158.21508-.23437.16163-.37605.16828-3.32758.15608-4.98069,2.91975-3.59995,6.00114,1.00587,2.24476,3.45079,3.41975,5.49126,2.38179A.33362.33362,0,0,1,277.78062,49.9397Z"/><path class="cls-2" d="M243.45922,34.35587a9.7419,9.7419,0,0,1-5.76058-1.80215,3.53751,3.53751,0,0,1-1.37073-1.973c-.0378-.15959-.11034-.39.11357-.46112.22249-.07072.29188.14327.35067.30854a4.37818,4.37818,0,0,0,2.83536,2.59683,10.27024,10.27024,0,0,0,8.17811-.23324,4.32449,4.32449,0,0,0,2.36425-2.29652c.05207-.12858.08111-.36586.27666-.304.22782.0721.12082.30262.087.46075a2.83943,2.83943,0,0,1-.67331,1.27416A7.17525,7.17525,0,0,1,245.45484,34.14C244.76094,34.2613,244.05157,34.29419,243.45922,34.35587Z"/><path class="cls-2" d="M225.07875,21.71414a3.22846,3.22846,0,0,1,3.04346.73466,5.1792,5.1792,0,0,1,1.69035,4.6678,8.14114,8.14114,0,0,1-4.42765,6.79c-.30607.16976-.81745.5657-1.03963.10667-.22139-.45738.42492-.50255.717-.65174a7.84506,7.84506,0,0,0,4.1476-7.87057,4.16838,4.16838,0,0,0-3.82016-3.69895C225.28459,21.77566,225.18235,21.74051,225.07875,21.71414Z"/><path class="cls-2" d="M262.85908,35.4675a1.90872,1.90872,0,0,1-1.14767,1.7821,1.76855,1.76855,0,0,1-1.92411-.52434c-.22057-.23778-.41134-.50106-.20418-.8236.22553-.35113.5127-.24283.79755-.04856a.53821.53821,0,0,0,.72713-.03606c.243-.22925.13173-.49577.01513-.73387-.15058-.30745-.405-.28239-.67879-.17057a.5794.5794,0,0,1-.7733-.14743.75309.75309,0,0,1,.06311-.92412,1.56791,1.56791,0,0,1,2.19338-.26038A2.34661,2.34661,0,0,1,262.85908,35.4675Z"/><path class="cls-2" d="M242.17405,10.42207c.17705-.10635.245-.17842.32087-.1881a6.35342,6.35342,0,0,1,4.00034.55943,1.89461,1.89461,0,0,1,.62253,3.0656,4.83224,4.83224,0,0,1-1.57582,1.29753,10.89392,10.89392,0,0,1-5.031,1.269c-.20886.00474-.51729.07287-.53608-.2307-.02187-.35351.30968-.31257.5399-.311a9.69542,9.69542,0,0,0,4.29462-.97562,5.38527,5.38527,0,0,0,1.66911-1.18011c.96542-1.04389.78261-2.02622-.50554-2.64729a6.38344,6.38344,0,0,0-2.77743-.53027A1.95583,1.95583,0,0,1,242.17405,10.42207Z"/><path class="cls-2" d="M236.4336,27.48623a1.54458,1.54458,0,0,1,.80781-1.24832,8.56327,8.56327,0,0,1,3.68461-1.40515,10.70377,10.70377,0,0,1,5.6253.35,2.94428,2.94428,0,0,1,1.01973.60576c.11476.1083.23064.23657.12381.40267-.12784.19875-.29828.1301-.46254.03718-2.94587-1.66645-5.915-1.19034-8.88195-.07782A6.80227,6.80227,0,0,0,236.4336,27.48623Z"/><path class="cls-2" d="M260.38187,74.42428c-.24652-.06067-.79094.1505-.805-.196-.01427-.35156.53622-.19918.83525-.23749a5.81534,5.81534,0,0,0,1.96915-.54507c2.20312-1.13707,2.37022-3.437.34492-4.88292a9.92583,9.92583,0,0,0-.918-.52858c-.1945-.10946-.32625-.26012-.20109-.48125a.35.35,0,0,1,.5209-.10643,4.51932,4.51932,0,0,1,2.47926,2.70689,3.06045,3.06045,0,0,1-1.41245,3.43035A5.14889,5.14889,0,0,1,260.38187,74.42428Z"/><path class="cls-2" d="M254.04791,71.32635a3.59939,3.59939,0,0,1-.08467-4.153,3.43749,3.43749,0,0,1,3.78043-1.23673,7.83575,7.83575,0,0,1,1.17932.42867c.18837.07972.49183.16729.36848.44806-.14317.32585-.3826.069-.55316-.01616a4.84881,4.84881,0,0,0-1.37031-.4791,2.99542,2.99542,0,0,0-3.60287,3.476C253.82266,70.3089,253.95175,70.81579,254.04791,71.32635Z"/><path class="cls-2" d="M276.61527,46.25157c-.00548.72712-.33391.99644-.876.79718a1.72821,1.72821,0,0,1-.81042-1.97606c.0761-.1652.16825-.33985.3863-.271.20014.06322.161.24161.10548.3898a1.05314,1.05314,0,0,0,.04282.83519C275.75406,46.67713,276.03493,46.74708,276.61527,46.25157Z"/><path class="cls-3" d="M253.98036,38.96238l-.13219-.10023c.12194-.07242.09276.06094.134.09841Z"/><polygon class="cls-3" points="254.481 39.898 254.516 39.86 254.532 39.906 254.481 39.898"/><path class="cls-3" d="M253.98218,38.96056l.13163.09982c-.12124.07182-.09212-.06105-.13345-.098Z"/><path class="cls-2" d="M214.19135,52.22a6.37188,6.37188,0,0,1-.24,1.9039,1.4722,1.4722,0,0,1-2.1338.97716,2.256,2.256,0,0,1-1.00034-.84448,12.32108,12.32108,0,0,1-1.9729-7.87817,1.62591,1.62591,0,0,1,.04724-.32749c.21155-.70674.43192-1.43782,1.24669-1.66021.82689-.22568,1.34243.3454,1.77551.89954A12.065,12.065,0,0,1,214.19135,52.22Z"/><path class="cls-2" d="M214.52121,56.2266a2.31041,2.31041,0,0,1-3.36234.26987c.273-.2052.51743-.00649.74172.05063a1.84569,1.84569,0,0,0,2.55954-1.285,9.44641,9.44641,0,0,0,.18016-4.781c-.08573-.6115-.23768-1.21348-.34444-1.82243-.02475-.14118-.05408-.33487.14834-.38594.20532-.05179.27137.1253.3051.27158a12.80245,12.80245,0,0,1,.23963,6.67131,6.93789,6.93789,0,0,1-.48518,1.01177Z"/><path class="cls-2" d="M210.12326,41.9259a.78045.78045,0,0,1,.7188.09272,5.87323,5.87323,0,0,1,3.10035,3.35122c.07176.20247.21594.494-.02267.59037-.33546.13555-.27333-.24675-.33915-.41731a6.29336,6.29336,0,0,0-3.03816-3.34454C210.4114,42.12814,210.23788,42.13337,210.12326,41.9259Z"/><path class="cls-2" d="M214.50374,56.22734c.62691.01749.70165.15.42648.756a1.70446,1.70446,0,0,1-2.821.53083c.25986-.09447.4625.08043.685.12606a1.501,1.501,0,0,0,1.85781-1.31816c.01317-.10851-.07745-.07476-.129-.09643Z"/><path class="cls-1" d="M262.93786,59.58251a9.79106,9.79106,0,0,1-5.32957-1.49548,6.12163,6.12163,0,0,1-2.06316-2.20448,1.4817,1.4817,0,0,1,.17257-1.83128,4.97613,4.97613,0,0,1,2.37687-1.62587,9.535,9.535,0,0,1,8.38459,1.05841,5.53539,5.53539,0,0,1,2.189,2.91532c.22449.60717-.19224,1.01067-.57626,1.37741a6.77323,6.77323,0,0,1-4.07264,1.73623C263.60263,59.56029,263.18139,59.56755,262.93786,59.58251Zm-2.27038-6.54478a6.19482,6.19482,0,0,0-3.5201.92335,2.34593,2.34593,0,0,0-.89066,1.04226c-.06237.15516-.1652.36186.054.46621.1916.09121.26551-.11568.33913-.23506a3.142,3.142,0,0,1,2.16154-1.40365,8.76184,8.76184,0,0,1,7.53537,1.75623c.20417.16078.42527.57012.69242.24858.23068-.27763-.16018-.49328-.35371-.67713a4.58763,4.58763,0,0,0-.73027-.5678A10.1509,10.1509,0,0,0,260.66748,53.03773Z"/><path class="cls-3" d="M232.34635,57.94228c-4.3041-.02592-7.04046-2.25242-7.49666-5.54485a2.48125,2.48125,0,0,1,.00337-.85464A9.01721,9.01721,0,0,1,228.82864,45.66a7.43284,7.43284,0,0,1,9.68841,1.59467,6.30955,6.30955,0,0,1-.93,8.309A8.11278,8.11278,0,0,1,232.34635,57.94228Zm4.93418-5.76458c.09554-3.50421-1.76221-6.50981-5.56775-6.08526-2.59653.28967-4.58827,1.5621-5.17,3.59038a5.44041,5.44041,0,0,0,7.64614,6.45567A5.01838,5.01838,0,0,0,237.28053,52.1777Zm-.561,2.79886c.44649.12221.6229-.13026.80877-.342a5.84054,5.84054,0,0,0-.19784-7.76993c-.15775-.14619-.36754-.352-.56506-.12219-.168.1955.053.35086.19386.4895a4.971,4.971,0,0,1,1.28278,5.01207A6.20594,6.20594,0,0,1,236.71954,54.97656Z"/><path class="cls-1" d="M220.89142,32.53672c.45309-.63836.88474-1.24617,1.316-1.8543.10218-.1441.21125-.28424.30184-.43538.08646-.14424.25232-.31694.0623-.46609-.20067-.15751-.31167.067-.42006.18683a4.04886,4.04886,0,0,0-.31031.42908c-.46374.67291-.93107,1.34344-1.38684,2.02172-.15678.23334-.32618.43262-.6349.38605-.30144-.04548-.698-.003-.84611-.28253-.12654-.23878.18775-.46232.336-.671.47339-.6662.96685-1.31811,1.44212-1.983.08023-.11223.24545-.26149.08184-.40263-.20526-.17707-.32026.03327-.41306.169-.48625.71112-.95207,1.43644-1.44922,2.1397-.12166.1721-.1854.56735-.48821.407a.63546.63546,0,0,1-.26307-.86581c.15805-.33967.34472-.66667.53093-.99232.08727-.15261.21772-.28084.30233-.43458.11568-.21018.51646-.44526.217-.64729-.2537-.17113-.37556.26877-.53759.4545-.13.14907-.2339.32085-.351.48133-.06722.09209-.15364.18522-.2718.12889-.11792-.05623-.10172-.19253-.06772-.29072.78136-2.25722,2.85522-5.11829,6.07288-5.297,1.25-.06943,1.74864.41412,1.86156,1.66729.29122,3.23205-2.553,5.45216-4.8327,6.20492C221.09218,32.6074,221.02167,32.56633,220.89142,32.53672Z"/><path class="cls-3" d="M241.75037,27.481a8.09516,8.09516,0,0,1,4.783,1.27624c.38709.22965.93373.47892.85947.98226-.07381.50033-.66162.61062-1.10335.71519a11.2128,11.2128,0,0,1-6.873-.58353,2.51863,2.51863,0,0,1-.51276-.29989c-.35645-.25329-.83156-.4887-.77436-.98511.05576-.48391.55632-.65084.9533-.83265A6.11734,6.11734,0,0,1,241.75037,27.481Zm2.764,1.10507c-.04412-.33156-.27856-.40566-.47221-.47431a5.00148,5.00148,0,0,0-3.74792.09827c-.33171.14141-.6404.35458-.61844.7762a.84459.84459,0,0,0,.617.71393,5.25363,5.25363,0,0,0,3.941.046c.21286-.079.54287-.191.41716-.491-.13548-.32328-.41675-.09161-.62461-.01634a5.19549,5.19549,0,0,1-3.3829.03968c-.19577-.06029-.46706-.121-.452-.40346.01251-.23527.253-.2959.43255-.358a4.97943,4.97943,0,0,1,2.41651-.23145C243.52732,28.361,244.00723,28.4811,244.51441,28.5861Z"/><path class="cls-3" d="M238.82452,14.44133c-.37164-.08439-.99857.17866-1.10721-.25136-.11461-.45365.522-.61488.88023-.83127a8.18582,8.18582,0,0,1,2.12772-.88078,2.0153,2.0153,0,0,1,.91143-.09822c.306.06.634.15291.73757.48228.10762.34219-.20894.50622-.41985.67765A5.00225,5.00225,0,0,1,238.82452,14.44133Z"/><path class="cls-3" d="M258.40284,16.41368a6.18619,6.18619,0,0,1-2.93878-1.17829c-.12686-.09105-.23435-.21726-.15333-.39134.06558-.14088.21011-.1502.34154-.1434a4.48253,4.48253,0,0,1,2.88393,1.28453c.09581.08923.18942.22235.11762.34678C258.61687,16.396,258.46733,16.39509,258.40284,16.41368Z"/><path class="cls-3" d="M274.55761,35.05055a1.54162,1.54162,0,0,1-.69715,1.39836.60554.60554,0,0,1-.73673-.09619,1.44971,1.44971,0,0,1-.27307-1.54016c.13377-.50167.43054-.91288,1.01944-.82742C274.45077,34.06939,274.50686,34.57139,274.55761,35.05055Z"/><path class="cls-1" d="M283.15068,33.00433c-.29143-.40378-.52166-.17747-.7563.02933A18.5437,18.5437,0,0,0,280.192,35.2346c-.18562.22922-.32248.53674-.66984.604-.0034-.38983-.01-.39375.085-.55475a7.82064,7.82064,0,0,1,2.56792-2.81237c.17407-.10762.414-.16206.33257-.484-.19308-.763-.5262-.92476-1.18767-.52205a8.23983,8.23983,0,0,0-2.804,2.139c-.12644-.4812.1545-.75413.37341-1.0295a6.05985,6.05985,0,0,1,2.41245-1.81671c.34279-.14549.50965-.28595.32335-.68275-.15652-.33344-.2265-.66066-.73787-.48545-.77289.26482-1.56413.47743-2.35213.69566-.19581.05422-.48516.19438-.57743-.0854-.08877-.26926.21144-.35193.40767-.42636.74359-.282,1.49252-.55014,2.24123-.8184.28371-.10169.54269-.1766.38685-.59551-.12754-.34285-.27439-.43525-.6358-.31715a5.82417,5.82417,0,0,1-3.14344-.03053c-.26709-.06006-.57659-.087-.71237-.40748.20807-.24416.46121-.10857.6832-.07849a8.00915,8.00915,0,0,0,2.95928-.20363c.37971-.09036.44665-.287.36505-.62207-.08271-.33967-.192-.54843-.63013-.44444a5.35051,5.35051,0,0,1-2.68972-.08371c-.23419-.06482-.52341-.09977-.59288-.42231.22475-.10291.41138-.00243.60443.02966a8.76809,8.76809,0,0,0,2.64106.05285c.38921-.05311.43762-.27056.41844-.60066-.01914-.32984-.13932-.4813-.48564-.46358a4.88541,4.88541,0,0,1-1.31975-.08806,11.39208,11.39208,0,0,1-6.3423-3.97673,22.876,22.876,0,0,0-2.125-2.18481,28.914,28.914,0,0,0-8.50232-5.5518,5.67913,5.67913,0,0,1-3.79877-5.00422c-.02174-.26521-.096-.41316-.40255-.371-.32221.04438-.39541.23581-.36151.513a4.475,4.475,0,0,0,1.22861,3.19094.20219.20219,0,0,1,.04335.32095,1.81784,1.81784,0,0,1-1.28075-1.08238,5.22629,5.22629,0,0,1-.41085-2.33049c.017-.21745.14068-.52143-.25967-.55235-.34385-.02654-.47162.18728-.50154.48467a3.25671,3.25671,0,0,0,.42523,2.48071c.138.18037.35937.42741.054.62188-.29408.18728-.41958-.1218-.56594-.29833a3.17812,3.17812,0,0,1-.4679-2.77554c.04555-.25885.25905-.57406-.2303-.65865-.40855-.0706-.72437-.06018-.84225.45414a18.65389,18.65389,0,0,0-.40706,2.55073c-.01606.18429.03342.4763-.224.478-.27066.00182-.30009-.28484-.30842-.5069a5.6775,5.6775,0,0,1,.40115-2.66428c.234-.50171-.03559-.55573-.40985-.61114-.38954-.05776-.42033.23548-.5.48012a10.9525,10.9525,0,0,0-.25687,2.34071,2.41,2.41,0,0,1-.32237-1.72577c-.00231-.44924.59187-.89919.17631-1.264a3.46489,3.46489,0,0,0-1.315-.40339c-.0426-.01187-.08465-.0256-.12712-.03793a.49053.49053,0,0,0-.63843.30629,5.99324,5.99324,0,0,0-.72327,2.52788c-.008.20895.03079.50933-.28773.4958-.30547-.01294-.26317-.30511-.26466-.51831a4.86,4.86,0,0,1,.79316-2.56306c.087-.14461.2959-.33854.15717-.46254a2.21221,2.21221,0,0,0-1.10607-.40431c-.30953-.05905-.33834.23819-.4163.42394a3.62462,3.62462,0,0,1-1.61867,2.026c-.21369.10811-.4518.44924-.68152.1387-.24211-.32727.14993-.44752.3449-.58054a3.96436,3.96436,0,0,0,1.47448-1.7493c.10233-.24194.28-.49255-.12213-.63992-.2994-.10973-.57675-.34032-.83751.11152a5.0155,5.0155,0,0,1-2.30184,1.93034,15.01526,15.01526,0,0,1-4.28925,1.3372,32.9316,32.9316,0,0,0-6.277,1.34626,14.95556,14.95556,0,0,1-4.23.72736,4.22013,4.22013,0,0,1-3.11609-1.06236c-.12293-.10548-.22822-.32828-.43116-.14367-.23627.21489-.00795.35259.12235.48247a9.3793,9.3793,0,0,0,3.85552,2.49868c.24065.07372.71493.04919.60429.42127-.07994.26891-.50206.10334-.77418.05432a1.90206,1.90206,0,0,1-.31871-.0904,8.45854,8.45854,0,0,1-3.59372-2.52584c-.157-.18623-.282-.51027-.617-.21524-.317.27929-.044.47328.1049.66889a17.7285,17.7285,0,0,0,1.99017,2.03793c.1301.12355.42613.23121.279.45356-.17092.25823-.408.028-.58012-.07054a6.55176,6.55176,0,0,1-2.15224-2.12378c-.22938-.3424-.45443-.40832-.72158-.10327-.24445.27913-.9549.31449-.53224.97076a8.11421,8.11421,0,0,0,2.40531,2.6139,3.43005,3.43005,0,0,1,.47007.36566.29423.29423,0,0,1,.09662.22313c-.02349.1219-.14185.15214-.2606.14714a1.28461,1.28461,0,0,1-.61523-.228,6.10508,6.10508,0,0,1-2.0207-1.97272c-.82246-1.30489-.828-1.28678-2.02336-.26566a.53369.53369,0,0,0-.13153.82749,24.23217,24.23217,0,0,0,2.03819,2.77765c.14571.173.41822.403.16316.615-.23954.19912-.441-.08566-.597-.25658a15.28515,15.28515,0,0,1-1.71919-2.27066c-.68031-1.10081-.66753-1.08887-1.72937-.34162-.35979.25321-.41942.44412-.19276.84988a7.603,7.603,0,0,1,.9549,3.01343,1.99627,1.99627,0,0,1-.197,1.27932,3.04936,3.04936,0,0,1-.26534-1.19042,10.25977,10.25977,0,0,0-.8952-2.97119c-.06651-.1641-.13864-.35281-.34564-.35839a.52738.52738,0,0,0-.45375.231c-.12835.19668.04322.37523.0827.56263a6.12943,6.12943,0,0,1-.95561,5.45229,34.40333,34.40333,0,0,0-7.39246,18.10324c-.02508.25859-.162.59875.29561.67084a5.34987,5.34987,0,0,1,3.68022,2.79777,17.948,17.948,0,0,1,2.614,11.93816,5.8645,5.8645,0,0,1-2.2921,4.52659c-.306.2097-.14046.40693-.0332.622a15.743,15.743,0,0,0,2.24159,3.19743,9.47887,9.47887,0,0,1,1.98861,5.1073,3.3533,3.3533,0,0,1-.23548,2.075c-.12849.24928-.05516.40313.17614.5431.26735.16181.40563.01957.54469-.17494a6.71606,6.71606,0,0,0,1.38108-3.32708c.03646-.41654.01048-.83849.01375-1.258.00143-.18539.02885-.37442.24594-.41043.22306-.037.30849.14217.35294.31806a2.53026,2.53026,0,0,1,.05688.45868,6.32,6.32,0,0,1-1.43432,4.3726c-.20564.26628-.46961.48441-.00123.78564.38159.24541.64573.38577.97726-.08242a25.74324,25.74324,0,0,0,1.28918-2.23876,3.3573,3.3573,0,0,1-.938,2.549c-.14581.17774-.48331.31687-.13728.633.29347.26819.51348.16521.73161-.07125,1.02365-1.1096,1.95834-2.25421,1.50936-3.93106-.03416-.12764-.05392-.27569.11349-.33217.14955-.05042.25522.0448.328.1595a1.64255,1.64255,0,0,1,.21446,1.02183,4.90877,4.90877,0,0,1-1.54722,3.14079c-.61134.62392-.61569.61967.05613,1.18568.813.68489.8013.67444,1.4943-.09714a5.46594,5.46594,0,0,1,2.94835-1.80027c.19487-.04169.43645-.06005.46647.21421.02566.23468-.1976.24908-.37085.28626a5.327,5.327,0,0,0-2.8407,1.84349c-.212.2373-.59183.47759-.12365.861.37085.30369.5994.58739,1.11707.08426a6.2215,6.2215,0,0,1,4.42643-1.81568c.19253-.00094.45449-.02732.4589.24782.00471.2924-.2678.23795-.45209.23776a6.64119,6.64119,0,0,0-4.13338,1.57386c-.19143.14824-.597.27647-.28818.656.226.27757.45426.54577.87713.23682a3.4655,3.4655,0,0,1,.83864-.39054,9.01884,9.01884,0,0,1,7.66692.75575,11.15331,11.15331,0,0,0,2.00234.87135,36.44224,36.44224,0,0,0,16.72343,1.10976A34.06275,34.06275,0,0,0,281.406,39.25108a6.26367,6.26367,0,0,1,1.73441-5.43681C283.47432,33.4658,283.36388,33.29972,283.15068,33.00433Zm-6.53542,13.24724c-.00545.72713-.33389.99643-.876.79718a1.72823,1.72823,0,0,1-.81042-1.97605c.07612-.16522.16826-.33987.38633-.271.20012.06321.161.24159.10544.3898a1.05325,1.05325,0,0,0,.04283.83518C275.75407,46.67712,276.035,46.74707,276.61526,46.25157Zm-2.44031-13.537a2.12375,2.12375,0,0,1,2.08676,2.196,2.8126,2.8126,0,0,1-2.74258,2.617A2.07559,2.07559,0,0,1,271.527,35.3929,2.7063,2.7063,0,0,1,274.175,32.71453ZM251.447,57.62021a12.67377,12.67377,0,0,0,5.18731,2.82613,36.98774,36.98774,0,0,0,4.30992,1.04818c.19412.04017.38606.09312.5761.14983a.32052.32052,0,0,1,.2701.33133c-.01855.2109-.18386.2851-.37532.30207a.73108.73108,0,0,1-.19838-.00279,23.8491,23.8491,0,0,1-8.77129-3.02891,6.8223,6.8223,0,0,1-2.05863-1.94192,3.65845,3.65845,0,0,1-.66883-2.11687,4.45647,4.45647,0,0,1,1.26486-2.98212,13.35566,13.35566,0,0,1,4.64754-3.2256c.19678-.08409.50466-.33542.63139-.03747.11421.26849-.27241.34288-.46391.44908a21.13279,21.13279,0,0,0-3.18626,2.01794,7.52914,7.52914,0,0,0-1.63143,1.72541A3.21522,3.21522,0,0,0,251.447,57.62021Zm4.52993.41329c-2.71175-2.599-2.23633-6.2571,1.04468-8.07109a8.58949,8.58949,0,0,1,3.93144-1.08332,10.74728,10.74728,0,0,1,6.78281,2.01554c3.49784,2.53188,3.15606,6.82211-.68651,8.77827A10.26985,10.26985,0,0,1,255.9769,58.0335Zm.73395-21.42377A4.41074,4.41074,0,0,1,261.2033,31.254a3.27683,3.27683,0,0,1,2.45895,1.3899c.14574.2045.36264.49158.13737.71431-.274.27089-.47-.07193-.65339-.22656a2.92257,2.92257,0,0,0-4.07981-.15094,3.50514,3.50514,0,0,0-.856,4.32186,2.76007,2.76007,0,0,0,4.37037.60008c.27062-.24529.54553-.78632.95805-.34678.4493.47873-.10464.78476-.40729,1.05973a3.8646,3.8646,0,0,1-2.71163,1.05578A3.6907,3.6907,0,0,1,256.71085,36.60973Zm-2.22952,3.28838.0342-.03832.01615.04659ZM256.653,42.316a.504.504,0,0,1,.02079-.093l.00017.00006A.48882.48882,0,0,0,256.653,42.316Zm-2.80478-3.45381c.12193-.07242.09273.06093.134.0984l.13163.09981c-.12125.07183-.09211-.061-.13345-.098Zm7.27475-3.779c-.15058-.30745-.405-.2824-.67879-.17056a.57945.57945,0,0,1-.77331-.14743.75317.75317,0,0,1,.06311-.92415,1.56786,1.56786,0,0,1,2.19337-.26034,2.34653,2.34653,0,0,1,.93177,1.8868,1.90879,1.90879,0,0,1-1.14769,1.78213,1.76863,1.76863,0,0,1-1.92411-.52435c-.22056-.23779-.41134-.50106-.20418-.82363.22556-.35112.5127-.24282.79757-.04854a.53817.53817,0,0,0,.72711-.03608C261.35077,35.5878,261.23951,35.32126,261.12294,35.08317Zm1.47828,8.08008a.41436.41436,0,0,1,.08542-.10415A.41436.41436,0,0,0,262.60122,43.16325Zm1.327-20.61143a1.42064,1.42064,0,0,1,.825,2.30164c-.65127,1.02086-2.99117,2.18754-4.4178,1.45768-.35615-.18222-.74076-.30882-1.11229-.461l.03828-.17082c.2523,0,.50463-.00049.75692.00006a3.55916,3.55916,0,0,0,2.165-.71691c.22021-.16246.56559-.33484.48853-.648-.07738-.31437-.4529-.30181-.73174-.33971a4.38054,4.38054,0,0,0-1.38688.019c-.23721.04345-.53016.12706-.64388-.14947-.099-.24062.15983-.39184.32712-.521A4.12915,4.12915,0,0,1,263.9282,22.55182Zm-8.90192-9.4571c.195-.03017.39528-.02608.65462-.04153a6.19865,6.19865,0,0,1,4.175,1.90627,1.3563,1.3563,0,0,1,.429,1.44048,1.32164,1.32164,0,0,1-1.34635.78323,6.28422,6.28422,0,0,1-4.43636-1.58074,2.42567,2.42567,0,0,1-.35119-.394A1.22314,1.22314,0,0,1,255.02628,13.09472Zm-3.77077,29.80657c-.01674.10282-.04023.205-.06359.3215l-.04728-.01175a.77721.77721,0,0,0-.04591-.23477C251.22654,42.96491,251.24824,42.93438,251.25551,42.90129Zm-1.59142-.42789a.78056.78056,0,0,0-.08121-.05957.80554.80554,0,0,1,.08128.05947Zm.5058-11.9782c.052-.12858.08108-.36586.27666-.304.2278.07212.12079.30262.087.46075a2.83947,2.83947,0,0,1-.67334,1.27417A7.17516,7.17516,0,0,1,245.45485,34.14c-.69391.12135-1.40329.15425-1.99562.21593a9.74193,9.74193,0,0,1-5.76058-1.80215,3.53754,3.53754,0,0,1-1.37072-1.973c-.03783-.15959-.11035-.39.11356-.46114.22247-.0707.29187.14328.35067.30855A4.37816,4.37816,0,0,0,239.6275,33.025a10.27034,10.27034,0,0,0,8.17812-.23325A4.32456,4.32456,0,0,0,250.16989,30.4952ZM235.15775,42.89843a1.28772,1.28772,0,0,0,.0024.13832A1.28772,1.28772,0,0,1,235.15775,42.89843Zm13.219-14.87142a2.07746,2.07746,0,0,1-.3227,3.387,6.91568,6.91568,0,0,1-4.04759,1.00117,10.89042,10.89042,0,0,1-4.9172-1.16168,4.18879,4.18879,0,0,1-1.74122-1.48716,1.743,1.743,0,0,1,.40891-2.42186,4.72921,4.72921,0,0,1,2.37338-.9392,16.334,16.334,0,0,1,5.59589.20564A5.0507,5.0507,0,0,1,248.37672,28.027Zm-.68187-1.83579c-.12783.19876-.29827.1301-.46254.03718-2.94585-1.66643-5.91493-1.19032-8.88193-.0778a6.80148,6.80148,0,0,0-1.91678,1.33564,1.5445,1.5445,0,0,1,.80783-1.24833,8.56308,8.56308,0,0,1,3.6846-1.40515,10.704,10.704,0,0,1,5.62528.35,2.94429,2.94429,0,0,1,1.01973.60579C247.6858,25.89684,247.80169,26.02513,247.69485,26.19122ZM242.49492,10.234a6.35337,6.35337,0,0,1,4.00036.55942,1.89462,1.89462,0,0,1,.6225,3.06561,4.83232,4.83232,0,0,1-1.57581,1.29752,10.89423,10.89423,0,0,1-5.031,1.269c-.20882.00473-.51728.07287-.53606-.23072-.02187-.3535.30969-.31258.53989-.311a9.69532,9.69532,0,0,0,4.29463-.9756,5.38646,5.38646,0,0,0,1.66913-1.18011c.96541-1.04389.78261-2.02624-.50554-2.64728a6.38331,6.38331,0,0,0-2.77745-.53029,1.95574,1.95574,0,0,1-1.02145-.12848C242.35109,10.31571,242.419,10.24365,242.49492,10.234ZM236.532,14.24757c-.0732-.25443-.32484-.06174-.50174-.03484-.31131.04737-.79225.36481-.89069.07761-.12008-.35048.43234-.38565.71221-.48539,1.64946-.58791,3.00493-1.74017,4.65053-2.35582a5.9308,5.9308,0,0,1,3.299-.3583,1.60152,1.60152,0,0,1,1.38321.98751,1.55581,1.55581,0,0,1-.50212,1.61513,4.03631,4.03631,0,0,1-2.09309,1.20992,32.42371,32.42371,0,0,0-4.74047,1.64742c-.28169.12018-.28727.10707-.80412.04159.58362-.47811,1.26264-.50592,1.8427-.91217-1.405-.47263-2.39249.689-3.74245.70848.3961-.51945.94215-.5371,1.34532-.78725.19921-.12365.67973-.04095.52234-.46615-.13832-.37373-.46615-.34976-.83161-.2031a3.33864,3.33864,0,0,1-1.80416.4469,6.47249,6.47249,0,0,1,1.74258-.8027C236.28922,14.49708,236.60193,14.49049,236.532,14.24757Zm-8.40982,8.20123a5.17915,5.17915,0,0,1,1.69034,4.66779,8.14116,8.14116,0,0,1-4.42766,6.79c-.30606.16976-.81743.56569-1.03962.10665-.22137-.45738.42494-.50254.717-.65173a7.84507,7.84507,0,0,0,4.14759-7.87057,4.16832,4.16832,0,0,0-3.82016-3.69894c-.10515-.01632-.20739-.05146-.311-.07784A3.2285,3.2285,0,0,1,228.12222,22.4488ZM216.82613,58.83a3.39248,3.39248,0,0,1-1.44347,1.16882.57321.57321,0,0,1,.27313-.53834,8.49146,8.49146,0,0,0,2.498-5.82849,19.52075,19.52075,0,0,0-3.02524-10.94929c-.17728-.30554-.36174-.60712-.53087-.9171a.273.273,0,0,1,.03452-.36462c.15411-.11963.2912-.03057.3996.094a2.03348,2.03348,0,0,1,.1949.2667,21.75715,21.75715,0,0,1,3.51539,9.81964A9.91249,9.91249,0,0,1,216.82613,58.83Zm3.25742-24.93436a2.89838,2.89838,0,0,1-3.16921-3.51008,8.64808,8.64808,0,0,1,2.65521-4.99617,16.66812,16.66812,0,0,1,2.3944-1.98543,4.88882,4.88882,0,0,1,3.37832-.91918,2.904,2.904,0,0,1,2.81344,3.33182,13.52069,13.52069,0,0,1-.65313,3.23834,6.86884,6.86884,0,0,1-2.48383,3.11356A10.2121,10.2121,0,0,1,220.08355,33.89561Zm8.62224,24.79673A7.20766,7.20766,0,0,1,224.73894,48.7a26.45472,26.45472,0,0,1,1.395-2.40134,10.8221,10.8221,0,0,1,1.38571-1.247l.45278-.37939c.00149-.063.00188-.12608.00178-.18915.0001.06307-.00029.12614-.00178.18919a5.27357,5.27357,0,0,0,1.42367-.65345l1.23027-.40846a10.52268,10.52268,0,0,1,3.7173-.18244l.2606-.01982.40064.07323.25181.04944a2.76333,2.76333,0,0,1-.07907-.34275,2.76333,2.76333,0,0,0,.07907.34275,15.50841,15.50841,0,0,1,2.66185,1.15217l.93913.74053a2.865,2.865,0,0,0,.673.7005,7.51812,7.51812,0,0,1,1.62272,5.06158,8.18792,8.18792,0,0,1-3.53694,6.24354A9.021,9.021,0,0,1,228.70579,58.69234Zm13.4736,16.70718a6.70461,6.70461,0,0,1-2.88732.19428,7.927,7.927,0,0,1-4.49463-1.92106,3.04675,3.04675,0,0,1-.86265-1.23773,1.86982,1.86982,0,0,1,.79462-2.30664c1.5993-1.12306,5.298-.93683,6.79591.34538.02392.02051.01431.08018.02531.15584a3.18137,3.18137,0,0,1-1.20165-.27991,8.36815,8.36815,0,0,0-3.86035-.3396c-.89111.14989-1.82045.39518-2.08913,1.377-.27669,1.01094.44749,1.67444,1.18737,2.17686a7.95845,7.95845,0,0,0,6.17978,1.30486c.08657-.01668.17-.04984.25668-.06561.19334-.03517.42276-.1119.51166.14169C242.63979,75.24391,242.38292,75.33482,242.17939,75.39952Zm.62357-2.2691a1.28764,1.28764,0,0,1-1.08118,1.0387,9.45372,9.45372,0,0,1-1.19733.18566,6.18872,6.18872,0,0,1-3.71111-1.15866,1.40943,1.40943,0,0,1-.71084-1.46215c.15317-.63775.70315-.86438,1.28818-.995a5.85383,5.85383,0,0,1,4.75812,1.098A1.31969,1.31969,0,0,1,242.803,73.13042Zm10.96217-3.3364c.05752.51488.18663,1.02177.28279,1.53233a3.59942,3.59942,0,0,1-.08468-4.153,3.43752,3.43752,0,0,1,3.78041-1.23672,7.83249,7.83249,0,0,1,1.17933.42867c.18837.07971.49184.16728.36848.44807-.14315.32585-.3826.06894-.55316-.01616a4.84909,4.84909,0,0,0-1.3703-.47912A2.99543,2.99543,0,0,0,253.76513,69.794Zm5.11453,3.02278c-.07625-.34791.17579-.45839.45077-.53363a3.40131,3.40131,0,0,0,.56964-.17206.96535.96535,0,0,0,.20489-1.71218,2.93422,2.93422,0,0,0-2.81224-.52123,1.08388,1.08388,0,0,0-.88381.88079,1.1779,1.1779,0,0,0,.5346,1.14075c.13929.10727.30418.18128.44363.28838.17293.13276.55878.17611.41374.47276-.12851.26284-.44768.08348-.663.01149a3.32417,3.32417,0,0,1-2.12261-1.95708,2.25328,2.25328,0,0,1,1.59625-3.05525,8.34072,8.34072,0,0,1,1.03592-.1708,4.47014,4.47014,0,0,1,3.58785,1.71844,2.32938,2.32938,0,0,1,.36134,2.43837,2.46545,2.46545,0,0,1-2.07342,1.45424C259.26336,73.13668,258.9587,73.17753,258.87966,72.8168Zm4.31514.767a5.14866,5.14866,0,0,1-2.813.84046c-.24652-.06067-.79092.15049-.805-.196-.01427-.35154.53623-.19915.83524-.23746a5.81576,5.81576,0,0,0,1.96915-.54509c2.20314-1.13705,2.37023-3.437.34493-4.8829a9.92679,9.92679,0,0,0-.918-.5286c-.19451-.10944-.32623-.26012-.20106-.48123a.35.35,0,0,1,.52088-.10646,4.51948,4.51948,0,0,1,2.47928,2.70693A3.06045,3.06045,0,0,1,263.1948,73.58381Zm8.821-12.49866a12.66351,12.66351,0,0,1-6.7382,2.87353A18.79927,18.79927,0,0,1,252.514,61.5343a10.163,10.163,0,0,1-3.51682-3.45109,5.94148,5.94148,0,0,1,1.06677-7.77691,12.65467,12.65467,0,0,1,7.24568-3.12079,12.90858,12.90858,0,0,1,3.10917-.07677c.24662.02563.54463-.02943.70585.28273a2.13211,2.13211,0,0,1-1.2166.19753,16.7401,16.7401,0,0,0-7.32734,1.85043,8.9789,8.9789,0,0,0-2.1111,1.5904,5.22571,5.22571,0,0,0-.53194,6.95552,11.07984,11.07984,0,0,0,5.2072,3.84663,17.982,17.982,0,0,0,13.64131.20918,8.67661,8.67661,0,0,0,3.35661-2.31076,5.10872,5.10872,0,0,0,.56851-6.31732,10.34007,10.34007,0,0,0-4.04834-3.6321c-.30327-.16706-.9466-.25564-.64453-.7783.27926-.48315.71188-.03144,1.02949.13692a11.55109,11.55109,0,0,1,3.82142,3.12193A6.1301,6.1301,0,0,1,272.0158,61.08515Zm4.6748-10.43642a4.69345,4.69345,0,0,1-5.64861-3.45758,4.81517,4.81517,0,0,1,1.24863-5.1801,3.6931,3.6931,0,0,1,3.24457-.96373c.17358.02664.384.05338.34746.30223-.0316.215-.23439.16161-.37608.16826-3.32757.15607-4.98066,2.91977-3.6,6.00114,1.00588,2.24477,3.4508,3.41975,5.49126,2.38178a.33371.33371,0,0,1,.38276.039A1.59427,1.59427,0,0,1,276.6906,50.64873Zm1.20694-2.75182a1.71591,1.71591,0,0,1-2.58866,1.06777,4.15049,4.15049,0,0,1-2.154-3.73313,3.03343,3.03343,0,0,1,.47948-1.80968,1.67627,1.67627,0,0,1,2.2449-.4103c.21313.15713.35534.35012.23847.62029-.10584.24474-.33084.25742-.56422.23283-1.04176-.10983-1.361.17215-1.27439,1.20859a3.56365,3.56365,0,0,0,1.39781,2.609c.61714.47938,1.13776.25784,1.27322-.51981a5.84468,5.84468,0,0,0-.165-1.70614c-.03316-.28247-.13458-.62457.24691-.72266.34093-.08766.50329.20782.63424.46637A3.39033,3.39033,0,0,1,277.89754,47.89691Z"/><path class="cls-2" d="M260.66748,53.03773a10.1509,10.1509,0,0,1,5.28774,1.553,4.58763,4.58763,0,0,1,.73027.5678c.19353.18385.58439.3995.35371.67713-.26715.32154-.48825-.0878-.69242-.24858a8.76184,8.76184,0,0,0-7.53537-1.75623,3.142,3.142,0,0,0-2.16154,1.40365c-.07362.11938-.14753.32627-.33913.23506-.21922-.10435-.11639-.31105-.054-.46621a2.34593,2.34593,0,0,1,.89066-1.04226A6.19482,6.19482,0,0,1,260.66748,53.03773Z"/><path class="cls-2" d="M237.28053,52.1777a5.01838,5.01838,0,0,1-3.09158,3.96079,5.44041,5.44041,0,0,1-7.64614-6.45567c.5817-2.02828,2.57344-3.30071,5.17-3.59038C235.51832,45.66789,237.37607,48.67349,237.28053,52.1777Zm-9.09342-1.74425a2.42382,2.42382,0,0,0-.367,2.7472,4.43935,4.43935,0,0,0,6.3623,1.51464,1.9057,1.9057,0,0,0,.3978-2.84241c-.1972.41928-.00318.94238-.42913,1.35064a5.95775,5.95775,0,0,1-.07829-2.01393,1.10716,1.10716,0,0,0-.36108-.947c-.09663-.08242-.17179-.23074-.32433-.18566-.16045.04743-.11134.21681-.14527.33589a5.632,5.632,0,0,1-.30207,1.42718c-.17488-.03148-.17806-.12711-.17784-.21082.00139-.5524.0111-1.10479.01159-1.65719.00061-.68736-.54857-.66149-.98731-.70871-.5155-.05548-.3675.3721-.393.651-.03629.39649.06491.82467-.28294,1.20667a2.58425,2.58425,0,0,1-.21792-1.38849c-.01981-.48-.2335-.53569-.64389-.44343-.35673.08019-.34972.32214-.39374.59032-.07635.46516.10013.97692-.2553,1.40335a8.82516,8.82516,0,0,1-.14663-1.24034c-.01191-.14046.06625-.34889-.12089-.40237a.443.443,0,0,0-.50149.24154,2.38376,2.38376,0,0,0-.19273.628,2.00838,2.00838,0,0,1-.22013.81286C228.10009,51.04775,228.366,50.68573,228.18711,50.43345Z"/><path class="cls-2" d="M236.71954,54.97656a6.20594,6.20594,0,0,0,1.52251-2.73255,4.971,4.971,0,0,0-1.28278-5.01207c-.14084-.13864-.3619-.294-.19386-.4895.19752-.22981.40731-.024.56506.12219a5.84054,5.84054,0,0,1,.19784,7.76993C237.34244,54.8463,237.166,55.09877,236.71954,54.97656Z"/><path class="cls-2" d="M244.51441,28.5861c-.50718-.105-.98709-.22509-1.47392-.30051a4.97943,4.97943,0,0,0-2.41651.23145c-.17959.06212-.42.12275-.43255.358-.015.28244.25627.34317.452.40346a5.19549,5.19549,0,0,0,3.3829-.03968c.20786-.07527.48913-.30694.62461.01634.12571.29994-.2043.412-.41716.491a5.25363,5.25363,0,0,1-3.941-.046.84459.84459,0,0,1-.617-.71393c-.022-.42162.28673-.63479.61844-.7762a5.00148,5.00148,0,0,1,3.74792-.09827C244.23585,28.18044,244.47029,28.25454,244.51441,28.5861Z"/><path class="cls-1" d="M228.18711,50.43345c.17888.25228-.087.6143.2307.869a2.00838,2.00838,0,0,0,.22013-.81286,2.38376,2.38376,0,0,1,.19273-.628.443.443,0,0,1,.50149-.24154c.18714.05348.109.26191.12089.40237a8.82516,8.82516,0,0,0,.14663,1.24034c.35543-.42643.17895-.93819.2553-1.40335.044-.26818.037-.51013.39374-.59032.41039-.09226.62408-.03656.64389.44343a2.58425,2.58425,0,0,0,.21792,1.38849c.34785-.382.24665-.81018.28294-1.20667.02553-.27889-.12247-.70647.393-.651.43874.04722.98792.02135.98731.70871-.00049.5524-.0102,1.10479-.01159,1.65719-.00022.08371.003.17934.17784.21082a5.632,5.632,0,0,0,.30207-1.42718c.03393-.11908-.01518-.28846.14527-.33589.15254-.04508.2277.10324.32433.18566a1.10716,1.10716,0,0,1,.36108.947,5.95775,5.95775,0,0,0,.07829,2.01393c.426-.40826.23193-.93136.42913-1.35064a1.9057,1.9057,0,0,1-.3978,2.84241,4.43935,4.43935,0,0,1-6.3623-1.51464A2.42382,2.42382,0,0,1,228.18711,50.43345Z"/></svg>