<svg id="Capa_1" data-name="Capa 1" xmlns="http://www.w3.org/2000/svg" viewBox="0 0 496 512"><path d="M248,8C111.03,8,0,119.03,0,256,0,392.97,111.03,504,248,504c136.97,0,248-111.03,248-248C496,119.03,384.97,8,248,8Zm0,481.60938C118.98108,489.60938,14.39062,385.01892,14.39062,256S118.98108,22.39062,248,22.39062,481.60938,126.98108,481.60938,256,377.01892,489.60938,248,489.60938Z"/><path d="M279.00641,359.93536A64.5,64.5,0,0,0,183.5,416.5a65.175,65.175,0,0,0,.37671,6.93842,64.49915,64.49915,0,1,0,95.1297-63.50306ZM248,468a51.49694,51.49694,0,1,1,51.5-51.5A51.46678,51.46678,0,0,1,248,468Z"/></svg>