<svg id="Capa_1" data-name="Capa 1" xmlns="http://www.w3.org/2000/svg" viewBox="0 0 1008.31603 1007.15279"><path d="M1015.03863,353.26429l-.37792-1.88965c-.252-1.25977-.37791-2.39355-.75583-3.65331a13.76129,13.76129,0,0,1-.62988-2.14162,31.51439,31.51439,0,0,0-1.13382-3.14941,16.404,16.404,0,0,0-1.00779-2.14162c-.50394-1.0078-1.0078-1.88965-1.51174-2.89744a17.63507,17.63507,0,0,0-1.25976-2.01564c-1.0078-1.51173-2.14162-3.02342-3.27536-4.53516-.62988-.75587-1.38571-1.63768-2.14162-2.39354a10.87926,10.87926,0,0,0-1.7637-1.63768c-.75583-.75587-1.63768-1.38575-2.39359-2.01564-.62988-.50389-1.25976-1.00779-2.01559-1.51173-.252-.126-.50394-.37791-.75583-.5039L535.57192,16.2771a43.20992,43.20992,0,0,0-47.99707,0L26.87874,323.02992c-.252.126-.50391.37791-.75586.5039-.62988.5039-1.25977,1.0078-2.01562,1.51173-.88184.62988-1.6377,1.38575-2.39356,2.01563-.62988.5039-1.13379,1.13379-1.76367,1.63768a19.36575,19.36575,0,0,0-2.1416,2.39355,29.71861,29.71861,0,0,0-3.27539,4.53516c-.37793.62989-.88183,1.25977-1.25976,2.01563-.50391.88186-1.00782,1.88965-1.51172,2.89745-.37793.62988-.62988,1.38575-1.00781,2.14162-.37794,1.00779-.75586,2.14161-1.1338,3.14941a13.76673,13.76673,0,0,0-.62988,2.14162c-.25195,1.13378-.50391,2.39354-.75585,3.65331l-.37794,1.88964a42.84838,42.84838,0,0,0-.37793,5.66895V665.938a42.84668,42.84668,0,0,0,.37793,5.66895l.37794,1.88964L8.99007,677.15c.252.75583.37794,1.38572.62988,2.14162.37794,1.13382.75586,2.14162,1.1338,3.14941a16.40191,16.40191,0,0,0,1.00781,2.14162,31.89019,31.89019,0,0,0,1.51172,2.89745,17.64015,17.64015,0,0,0,1.25976,2.01559c.62988.88185,1.13379,1.7637,1.88965,2.64548l1.51171,1.88964c.62989.75583,1.38574,1.63768,2.1416,2.39359a10.87693,10.87693,0,0,0,1.76367,1.63768c.75586.75583,1.6377,1.38571,2.39356,2.01559.62988.50394,1.25977,1.0078,2.01562,1.51173.252.12595.50391.37792.75586.50394l460.57018,306.75285a43.27184,43.27184,0,0,0,48.123,0L996.268,702.09332c.252-.12594.50393-.37791.75583-.50394.62988-.50393,1.25976-1.00779,2.01559-1.51173.88185-.62988,1.63768-1.38571,2.39358-2.01559.62989-.50394,1.13382-1.13382,1.76371-1.63768a19.36364,19.36364,0,0,0,2.14161-2.39359l1.51174-1.88964,1.88964-2.64548c.37792-.62988.88186-1.25977,1.25977-2.01559.50394-1.0078,1.0078-1.88965,1.51173-2.89745.37792-.62988.62989-1.38571,1.0078-2.14162.37791-1.00779.75583-2.14161,1.13382-3.14941a10.63672,10.63672,0,0,0,.62988-2.14162,31.16683,31.16683,0,0,0,.75583-3.65335l.37791-1.88964a42.845,42.845,0,0,0,.37792-5.66895V358.93323c-.37792-1.88965-.50394-3.7793-.75583-5.66894Zm-460.19224-220.207L894.22718,359.05921,742.67744,460.34433l-187.705-125.47262V133.05733Zm-86.67184,0V334.87174l-187.705,125.47263L128.91976,359.05925,468.17455,133.05737ZM94.15019,439.93616,202.49,512.37266,94.15021,584.80913v-144.873ZM468.17448,891.562,128.91972,665.56013,280.46949,564.275l187.705,125.47259V891.562Zm43.33595-276.89639L358.323,512.37263,511.51043,409.95372l153.18743,102.293Zm43.336,276.89639V689.74764l187.705-125.47259L894.10116,665.56021,554.84639,891.56213ZM928.87065,584.68318l-108.33981-72.4365,108.33981-72.4365Z" transform="translate(-7.47835 -9)"/></svg>