<svg id="Capa_1" data-name="Capa 1" xmlns="http://www.w3.org/2000/svg" viewBox="0 0 54.26825 54.27671"><path d="M32.40586,13.27936q-.00079,4.10474-.00042,8.20947c0,.27872.0004.27889.25767.15023q8.04652-4.02419,16.09268-8.04914A25.34423,25.34423,0,0,0,32.40543,2.56334C32.40536,5.55252,32.40535,10.71071,32.40586,13.27936Z" transform="translate(-0.40374 -0.28247)"/><path d="M22.65472,21.49462q.00012-4.10474-.00041-8.20948c.0005-2.56941.0005-7.72993.00043-10.71871A25.34455,25.34455,0,0,0,6.31332,13.60019q8.04156,4.023,16.08374,8.04466C22.65433,21.77351,22.65471,21.77334,22.65472,21.49462Z" transform="translate(-0.40374 -0.28247)"/><path d="M22.65874,41.66077q.00079-4.10475.00041-8.20948c0-.27872-.00039-.27889-.25766-.15023q-8.01817,4.01-16.03595,8.02077A25.3438,25.3438,0,0,0,22.65918,52.27609C22.65924,49.273,22.65924,44.20073,22.65874,41.66077Z" transform="translate(-0.40374 -0.28247)"/><path d="M32.38254,33.45744q-.00012,4.10475.00041,8.20947c-.0005,2.54014-.0005,7.61289-.00044,10.61594A25.34324,25.34324,0,0,0,48.69872,41.33926q-8.029-4.01664-16.05852-8.03205C32.38293,33.17855,32.38255,33.17872,32.38254,33.45744Z" transform="translate(-0.40374 -0.28247)"/><path d="M30.22785,30.63833c-.00039-.2114.05739-.25828.26185-.25816q11.10072.00669,22.20148.00452a25.64971,25.64971,0,0,0,.00975-5.844q-11.09422-.00014-22.18843.00534c-.226.00016-.28606-.04826-.28554-.28179.008-3.64233.00613-17.51542.006-22.02641a25.6195,25.6195,0,0,0-5.84148.05177c-.00014,4.57087-.00156,18.36149.00507,21.99746.00039.21139-.05739.25828-.26183.25816Q13.2548,24.53865,2.3749,24.5407a25.65086,25.65086,0,0,0,.00974,5.844q10.86363.00012,21.72726-.00534c.226-.00015.28606.04824.28554.28178-.00814,3.686-.00609,17.57289-.006,21.89093a25.62037,25.62037,0,0,0,5.84145.05178C30.233,48.34,30.23461,34.34685,30.22785,30.63833Z" transform="translate(-0.40374 -0.28247)"/><path d="M22.08583,32.34933c-.09405-.007-.1312-.0122-.16833-.01221q-1.98432-.00063-3.96867-.002a.798.798,0,0,0-.36737.101q-6.34138,3.17317-12.68321,6.34547.43932.87379.94295,1.708,7.99808-4.002,15.99616-8.00383C21.907,32.45092,21.974,32.41092,22.08583,32.34933Z" transform="translate(-0.40374 -0.28247)"/><path d="M33.00231,22.58869h.25888c1.25489,0,2.5098-.00208,3.76469.00242a1.02708,1.02708,0,0,0,.47843-.11685Q43.855,19.29512,50.2067,16.11779q-.4368-.87426-.93807-1.70893-8.00081,4.00206-16.00127,8.00478A.59974.59974,0,0,0,33.00231,22.58869Z" transform="translate(-0.40374 -0.28247)"/><path d="M10.99893,22.58761c.0472,0,.104.02165.15147-.04179-.07146-.03825-.13546-.07452-.20115-.10739q-3.61854-1.81062-7.23743-3.6205a25.13719,25.13719,0,0,0-1.03836,3.77044Q6.83619,22.58851,10.99893,22.58761Z" transform="translate(-0.40374 -0.28247)"/><path d="M43.91908,22.58868h.1824q4.15042,0,8.30085-.0003a25.13621,25.13621,0,0,0-1.04155-3.7793Q47.69,20.6455,44.01941,22.48222C43.97941,22.50225,43.91234,22.50157,43.91908,22.58868Z" transform="translate(-0.40374 -0.28247)"/><path d="M11.13987,32.33667h-.20935q-4.12023,0-8.24048.00032a25.13548,25.13548,0,0,0,1.04759,3.7586q3.6264-1.814,7.25206-3.62953C11.04285,32.43943,11.12537,32.43765,11.13987,32.33667Z" transform="translate(-0.40374 -0.28247)"/><path d="M44.07862,32.338c-.05477,0-.11868-.02555-.1774.03991.07024.03806.13359.07477.199.10747q3.61719,1.81,7.23475,3.61914A25.135,25.135,0,0,0,52.38575,32.337Q48.23218,32.33687,44.07862,32.338Z" transform="translate(-0.40374 -0.28247)"/><path d="M41.336,32.33409c-1.23927.00509-2.47855.00258-3.71784.00258h-.23564a.5483.5483,0,0,0,.20729.15882q6.29144,3.14781,12.58282,6.29577.43721-.86859.8089-1.77414-4.55115-2.27663-9.10119-4.55552A1.16238,1.16238,0,0,0,41.336,32.33409Z" transform="translate(-0.40374 -0.28247)"/><path d="M13.69113,22.59118c1.25465-.00473,2.50933-.002,3.764-.00392a.30373.30373,0,0,0,.23026-.03868c-.082-.04364-.15226-.083-.22412-.11891q-6.29842-3.15132-12.59674-6.30276-.43416.8699-.80238,1.77672Q8.62655,20.18741,13.19,22.473A1.07229,1.07229,0,0,0,13.69113,22.59118Z" transform="translate(-0.40374 -0.28247)"/><path d="M54.5205,24.54068q-.10416-.98709-.27772-1.95237a26.9618,26.9618,0,0,0-2.418-7.28015q-.43668-.87387-.93337-1.711a27.14342,27.14342,0,0,0-47.6449,1.72008q-.43431.87-.80713,1.77453-.18609.45168-.35623.91142A26.93528,26.93528,0,0,0,.833,22.58827q-.17343.96478-.27773,1.95242a27.44434,27.44434,0,0,0,.009,5.844q.10725.98721.28417,1.95237a26.94531,26.94531,0,0,0,2.43165,7.2541q.43917.87361.93842,1.71032A27.1429,27.1429,0,0,0,51.7907,39.60094q.43722-.86886.813-1.77243.18741-.45081.35894-.90968A26.93315,26.93315,0,0,0,54.22728,32.337q.17657-.96473.28418-1.95236a27.44434,27.44434,0,0,0,.009-5.844ZM52.38575,32.337a25.135,25.135,0,0,1-1.05082,3.76761q-.16807.46051-.35336.91256-.37092.90518-.8089,1.77414A25.37442,25.37442,0,0,1,32.38251,52.28285q-1.05974.20529-2.14961.321a25.62038,25.62038,0,0,1-5.84145-.05178q-.87573-.10853-1.73227-.276A25.34384,25.34384,0,0,1,6.36554,41.32183q-.27013-.41056-.52434-.83226-.50317-.8336-.94295-1.708A25.11437,25.11437,0,0,1,2.69,32.337q-.18957-.96362-.30544-1.95229a25.65086,25.65086,0,0,1-.00974-5.844q.11185-.98816.2986-1.95231A25.13719,25.13719,0,0,1,3.71178,18.818q.1666-.46134.35031-.9143.36777-.90629.80238-1.77672A25.38418,25.38418,0,0,1,22.65474,2.56643q.85836-.16767,1.7367-.27685a25.61949,25.61949,0,0,1,5.84148-.05177q1.101.11646,2.17251.32553A25.34423,25.34423,0,0,1,48.75579,13.58992q.264.40419.51283.81894.50061.83425.93807,1.70893a25.16482,25.16482,0,0,1,2.19564,6.47059q.1862.96368.2986,1.95229a25.65029,25.65029,0,0,1-.00975,5.844Q52.576,31.37295,52.38575,32.337Z" transform="translate(-0.40374 -0.28247)"/></svg>