<svg id="Capa_1" data-name="Capa 1" xmlns="http://www.w3.org/2000/svg" viewBox="0 0 55 55"><defs><style>.cls-1{fill:none;}.cls-2{fill:#2e2e2e;}.cls-3{fill:#6c6b6b;}.cls-4{fill:#606060;}</style></defs><path class="cls-1" d="M24.3974,30.66114c.00052-.23354-.05958-.28193-.28554-.28178q-10.86363.00786-21.72726.00534Q2.4998,31.373,2.69,32.337q4.12025-.00021,8.24048-.00032h.20935c-.0145.101-.097.10276-.15018.12939q-3.62554,1.81576-7.25206,3.62953a25.17579,25.17579,0,0,0,1.16062,2.686q6.34167-3.17261,12.68321-6.34547a.798.798,0,0,1,.36737-.101q1.98435.00413,3.96867.002c.03713,0,.07428.00519.16833.01221-.11183.06159-.17886.10159-.24847.13641q-7.998,4.00209-15.99616,8.00383.2544.42147.52434.83226,8.01765-4.011,16.036-8.02077c.25727-.12866.25765-.12849.25766.15023q.00012,4.10473-.00041,8.20948c.0005,2.54.0005,7.6122.00044,10.61532q.8562.1671,1.73227.276C24.39131,48.234,24.38926,34.3471,24.3974,30.66114Z"/><path class="cls-1" d="M24.13468,24.5452c.20444.00012.26222-.04677.26183-.25816-.00663-3.636-.00521-17.42659-.00507-21.99746q-.878.10881-1.7367.27685c.00007,2.98878.00007,8.1493-.00043,10.71871q.0008,4.10475.00041,8.20948c0,.27872-.00039.27889-.25766.15023Q14.355,17.6229,6.31332,13.60019a25.29143,25.29143,0,0,0-1.44881,2.52672q6.29827,3.15155,12.59674,6.30276c.07186.036.14207.07527.22412.11891a.30372.30372,0,0,1-.23026.03868c-1.25465.002-2.50933-.00081-3.764.00392A1.07236,1.07236,0,0,1,13.19,22.473Q8.62678,20.187,4.06213,17.90363q-.18376.45285-.35031.9143,3.61872,1.81022,7.23743,3.6205c.06569.03287.12969.06914.20115.10739-.04745.06344-.10427.04178-.15147.04179q-4.16272.00111-8.32547.00076-.1862.96367-.2986,1.95231Q13.25475,24.54061,24.13468,24.5452Z"/><path class="cls-1" d="M30.227,24.26422c-.00052.23353.05956.28195.28554.28179q11.09421-.008,22.18843-.00534-.11187-.98814-.2986-1.95229-4.15043.00019-8.30085.0003h-.1824c-.00674-.08711.06033-.08643.10033-.10646q3.67027-1.8374,7.34137-3.67314a25.1742,25.1742,0,0,0-1.15409-2.69129q-6.35139,3.17786-12.70238,6.35647a1.0271,1.0271,0,0,1-.47843.11685c-1.25489-.0045-2.5098-.00242-3.76469-.00242h-.25888a.59978.59978,0,0,1,.265-.175q8.00012-4.00341,16.00127-8.00478-.24882-.41466-.51283-.81894-8.046,4.02519-16.09268,8.04914c-.25727.12866-.25765.12849-.25767-.15023q-.00011-4.10473.00042-8.20947c-.00051-2.56865-.0005-7.72684-.00043-10.716q-1.07087-.20849-2.17251-.32553C30.23309,6.7488,30.235,20.62189,30.227,24.26422Z"/><path class="cls-1" d="M44.10018,32.48542c-.06537-.0327-.12872-.06941-.199-.10747.05872-.06546.12263-.03988.1774-.03991q4.15356-.00147,8.30713-.00109.18957-.9636.30543-1.95226-11.10075.00009-22.20148-.00452c-.20446-.00012-.26224.04676-.26185.25816.00676,3.70852.00515,17.70168.00505,21.96552q1.08919-.11523,2.14961-.321c-.00006-3.00305-.00006-8.0758.00044-10.61594q-.00079-4.10474-.00041-8.20947c0-.27872.00039-.27889.25766-.15023q8.02944,4.01565,16.05852,8.03205a25.29765,25.29765,0,0,0,1.47395-2.548q-6.29133-3.14805-12.58282-6.29577a.54834.54834,0,0,1-.20729-.15882h.23564c1.23929,0,2.47857.00251,3.71784-.00258a1.16235,1.16235,0,0,1,.54434.12751q4.54974,2.27948,9.10119,4.55552.18521-.452.35336-.91256Q47.71755,34.295,44.10018,32.48542Z"/><path class="cls-2" d="M32.40586,13.27936q-.00079,4.10474-.00042,8.20947c0,.27872.0004.27889.25767.15023q8.04652-4.02419,16.09268-8.04914A25.34422,25.34422,0,0,0,32.40543,2.56334C32.40536,5.55252,32.40535,10.71071,32.40586,13.27936Z"/><path class="cls-2" d="M22.65472,21.49462q.00012-4.10474-.00041-8.20948c.0005-2.56941.0005-7.72993.00043-10.71871A25.34453,25.34453,0,0,0,6.31332,13.60019q8.04156,4.023,16.08374,8.04466C22.65433,21.77351,22.65471,21.77334,22.65472,21.49462Z"/><path class="cls-2" d="M22.65874,41.66077q.00079-4.10475.00041-8.20948c0-.27872-.00039-.27889-.25766-.15023q-8.01817,4.01-16.03595,8.02077A25.34379,25.34379,0,0,0,22.65918,52.27609C22.65924,49.273,22.65924,44.20073,22.65874,41.66077Z"/><path class="cls-2" d="M32.38254,33.45744q-.00012,4.10474.00041,8.20947c-.0005,2.54014-.0005,7.61289-.00044,10.61594A25.34321,25.34321,0,0,0,48.69872,41.33926q-8.029-4.01664-16.05852-8.03205C32.38293,33.17855,32.38255,33.17872,32.38254,33.45744Z"/><path class="cls-3" d="M30.22785,30.63833c-.00039-.2114.05739-.25828.26185-.25816q11.10072.00669,22.20148.00452a25.65,25.65,0,0,0,.00975-5.844q-11.09422-.00014-22.18843.00534c-.226.00016-.28606-.04826-.28554-.28179.008-3.64233.00613-17.51542.006-22.02641a25.61966,25.61966,0,0,0-5.84148.05177c-.00014,4.57087-.00156,18.36149.00507,21.99746.00039.21139-.05739.25828-.26183.25816q-10.87992-.00657-21.75982-.00452a25.65075,25.65075,0,0,0,.00974,5.844q10.86363.00012,21.72726-.00534c.226-.00015.28606.04824.28554.28178-.00814,3.686-.00609,17.57289-.006,21.89093a25.62022,25.62022,0,0,0,5.84145.05178C30.233,48.34,30.23461,34.34685,30.22785,30.63833Z"/><path class="cls-3" d="M22.08583,32.34933c-.09405-.007-.1312-.0122-.16833-.01221q-1.98432-.00063-3.96867-.002a.798.798,0,0,0-.36737.101q-6.34138,3.17317-12.68321,6.34547.43932.8738.94295,1.708,7.99808-4.002,15.99616-8.00383C21.907,32.45092,21.974,32.41092,22.08583,32.34933Z"/><path class="cls-3" d="M33.00231,22.58869h.25888c1.25489,0,2.5098-.00208,3.76469.00242a1.0271,1.0271,0,0,0,.47843-.11685q6.35073-3.17915,12.70238-6.35647-.43679-.87426-.93807-1.70893-8.0008,4.00206-16.00127,8.00478A.59978.59978,0,0,0,33.00231,22.58869Z"/><path class="cls-2" d="M10.99893,22.58761c.0472,0,.104.02165.15147-.04179-.07146-.03825-.13546-.07452-.20115-.10739q-3.61854-1.81062-7.23743-3.6205a25.1364,25.1364,0,0,0-1.03836,3.77044Q6.83619,22.58851,10.99893,22.58761Z"/><path class="cls-2" d="M43.91908,22.58868h.1824q4.15042,0,8.30085-.0003a25.13481,25.13481,0,0,0-1.04155-3.7793Q47.69,20.6455,44.01941,22.48222C43.97941,22.50225,43.91234,22.50157,43.91908,22.58868Z"/><path class="cls-2" d="M11.13987,32.33667h-.20935q-4.12023,0-8.24048.00032a25.13563,25.13563,0,0,0,1.04759,3.7586q3.6264-1.814,7.25206-3.62953C11.04285,32.43943,11.12537,32.43765,11.13987,32.33667Z"/><path class="cls-2" d="M44.07862,32.338c-.05477,0-.11868-.02555-.1774.03991.07024.03806.13359.07477.199.10747q3.61719,1.80995,7.23475,3.61914A25.13575,25.13575,0,0,0,52.38575,32.337Q48.23218,32.33686,44.07862,32.338Z"/><path class="cls-3" d="M41.336,32.33409c-1.23927.00509-2.47855.00258-3.71784.00258h-.23564a.54834.54834,0,0,0,.20729.15882q6.29144,3.14781,12.58282,6.29577.43721-.86859.8089-1.77414-4.55115-2.27663-9.10119-4.55552A1.16235,1.16235,0,0,0,41.336,32.33409Z"/><path class="cls-3" d="M13.69113,22.59118c1.25465-.00473,2.50933-.002,3.764-.00392a.30372.30372,0,0,0,.23026-.03868c-.082-.04364-.15226-.083-.22412-.11891q-6.29842-3.15132-12.59674-6.30276-.43416.8699-.80238,1.77672Q8.62654,20.18741,13.19,22.473A1.07236,1.07236,0,0,0,13.69113,22.59118Z"/><path class="cls-4" d="M54.5205,24.54068q-.10416-.98709-.27772-1.95237a26.96156,26.96156,0,0,0-2.418-7.28015q-.43668-.87387-.93337-1.711a27.14342,27.14342,0,0,0-47.6449,1.72008q-.43431.87-.80713,1.77453-.18609.45168-.35623.91142A26.93549,26.93549,0,0,0,.833,22.58827q-.17343.96478-.27773,1.95242a27.44418,27.44418,0,0,0,.009,5.844q.10725.98721.28417,1.95237a26.94545,26.94545,0,0,0,2.43165,7.2541q.43917.87361.93842,1.71032A27.1429,27.1429,0,0,0,51.7907,39.60094q.43722-.86886.813-1.77243.18741-.45081.35894-.90968A26.93363,26.93363,0,0,0,54.22728,32.337q.17657-.96473.28418-1.95236a27.44418,27.44418,0,0,0,.009-5.844ZM52.38575,32.337a25.13575,25.13575,0,0,1-1.05082,3.76761q-.16807.46051-.35336.91256-.37092.90518-.8089,1.77414A25.37441,25.37441,0,0,1,32.38251,52.28285q-1.05974.20529-2.14961.321a25.62022,25.62022,0,0,1-5.84145-.05178q-.87573-.10853-1.73227-.276A25.34379,25.34379,0,0,1,6.36554,41.32183q-.27013-.41056-.52434-.83226-.50317-.8336-.94295-1.708A25.11458,25.11458,0,0,1,2.69,32.337q-.18957-.96362-.30544-1.95229a25.65075,25.65075,0,0,1-.00974-5.844q.11186-.98815.2986-1.95231a25.1364,25.1364,0,0,1,1.03836-3.77044q.16661-.46134.35031-.9143.36777-.90628.80238-1.77672A25.38419,25.38419,0,0,1,22.65474,2.56643q.85837-.16767,1.7367-.27685a25.61966,25.61966,0,0,1,5.84148-.05177q1.101.11646,2.17251.32553A25.34422,25.34422,0,0,1,48.75579,13.58992q.264.40419.51283.81894.50061.83425.93807,1.70893a25.16432,25.16432,0,0,1,2.19564,6.47059q.1862.96368.2986,1.95229a25.65,25.65,0,0,1-.00975,5.844Q52.576,31.37294,52.38575,32.337Z"/></svg>