<svg id="Capa_1" data-name="Capa 1" xmlns="http://www.w3.org/2000/svg" viewBox="0 0 54.26825 54.27186"><path d="M24.44019,31.48294q-1.982,0-3.964.001c-.08561.0001-.15529.00953-.14569-.11807a1.828,1.828,0,0,0-.07816-.56126,2.13511,2.13511,0,0,0-1.87053-1.68181c-.13146-.00995-.13693-.05879-.13678-.16033.00222-1.47709,0-2.95423.00445-4.43126.00037-.122-.024-.15838-.153-.15811q-3.05966.00682-6.11935.00058c-.11484-.00021-.14812.02458-.14767.14476.00489,1.30123.003,2.60252.003,3.90375V28.585c-.10582-.03008-.19138-.05689-.27819-.07871a6.98129,6.98129,0,0,0-1.68041-.18592c-.09994-.00042-.12454-.028-.12381-.126.00451-.61793.00229-1.23592.00229-1.85385,0-.274,0-.27745.26667-.27438.09026.00106.12983-.01118.12814-.11828q-.01048-.67057-.00018-1.34138c.00142-.09984-.03334-.11176-.11963-.1115q-1.30373.00453-2.60749-.001c-.10709-.00064-.11938.03808-.11843.1285.0042.39684.00182.79379.00182,1.19069,0,.24879.00022.25589.24736.24784.11222-.00371.125.03527.12435.134-.00477.65808-.00195,1.31627-.00289,1.97446-.00021.14519.04386.32252-.02341.426-.06011.09238-.24637.10144-.3758.15033a2.56392,2.56392,0,0,0-.88046.48837c-.252.23678-.23357.33911-.13008.56618.12971.2846.25592.571.37408.86058a.55825.55825,0,0,0,.30544.31188,2.16833,2.16833,0,0,0,.653.14885c.06322.007.08076.02622.07948.09068-.00474.236.001.47227-.003.70835-.00219.129.0534.28767-.02152.37878-.072.0875-.22872.10281-.345.15673a3.98054,3.98054,0,0,0-.785.4246.25069.25069,0,0,0-.11869.29138,6.52384,6.52384,0,0,1,.1312.736.56875.56875,0,0,0,.28071.44367.50636.50636,0,0,1,.26863.47905A.72855.72855,0,0,0,7.03757,33.699,2.99486,2.99486,0,0,1,7.676,33.4188c.046.05191.02557.115.02568.173.00139.81142.00373,1.62291-.00191,2.43428-.0009.12951.02962.17178.16572.17019.626-.00742,1.25217-.00328,1.87826-.00328.00289-.05483.00825-.1097.00828-.16452.00049-1.13046.00218-2.26087-.00253-3.39127a.22223.22223,0,0,1,.1253-.2249,3.07545,3.07545,0,0,0,.69228-.51872.27641.27641,0,0,0,.10994-.24641c-.051-.31073-.10032-.622-.13654-.93458a.19451.19451,0,0,0-.11425-.17178,1.74766,1.74766,0,0,0-.55583-.16447c-.08934-.01393-.12475-.04689-.12072-.14423.00878-.21067.00623-.422.0009-.63294-.002-.0786.01992-.10656.09978-.09942.254.02283.50966.03173.76246.06362a5.39983,5.39983,0,0,1,1.10921.23433.148.148,0,0,1,.11936.16955c-.00488.48732.00006.97468-.00519,1.462-.00079.07416.01286.09492.08621.0927.16063-.00482.32238.00895.482-.00466.135-.0115.16183.03263.1615.16277-.00474,1.85894.00436,3.71793-.01095,5.57671a.75517.75517,0,0,0,.30392.69336c.00805.00577.01361.015.02164.02087a1.37882,1.37882,0,0,0,.362.25711V33.73962c0-.7084.00159-1.4168-.00194-2.12516-.00047-.09274.01524-.133.12018-.12675a4.031,4.031,0,0,0,.49706-.00011c.114-.00731.14069.02734.14046.14027-.00229,1.05487.00329,2.10969.00437,3.16456q.00188,1.83877-.00206,3.67762c-.00031.1027.022.147.13038.16881.17474.03522.34727.0812.535.10043V31.7765c0-.06531.00468-.131-.00125-.19583-.00674-.07347.02034-.094.09234-.092a4.97166,4.97166,0,0,0,.51218-.00154c.12757-.00937.15375.03083.15354.15478q-.00627,3.444-.00307,6.888v.20949a3.80368,3.80368,0,0,0,.52373-.09132c.114-.0267.14239-.08.14233-.19514q-.00231-3.39845.0045-6.79694a.10436.10436,0,0,1,.00041-.03c.01441-.0455-.03953-.12548.04759-.13236.09761-.00768.0538.07855.05678.1223a2.40614,2.40614,0,0,0,.54578,1.41088.42476.42476,0,0,1,.10453.29657q-.00486,2.3739-.00218,4.7478V38.249a2.99912,2.99912,0,0,0,.58631-.4916.38063.38063,0,0,0,.12629-.3193c-.01462-.22819-.01716-.45733-.01782-.68616-.002-.70337-.00075-1.40674-.00075-2.11011V33.643a2.00171,2.00171,0,0,0,.57029.13284c.13193-.00005.14087.05186.14016.1569-.00384.57269.00218,1.1455-.003,1.7182a2.83106,2.83106,0,0,0,.32918,1.4248,3.3158,3.3158,0,0,0,4.871,1.04947,2.89647,2.89647,0,0,0,1.227-2.38349c.00927-1.34138.00231-2.68286.00231-4.02429C24.67407,31.48294,24.67407,31.48294,24.44019,31.48294Zm-17.00586-1.357c-.07683-.0106-.15369-.02087-.26918-.03655l.47674-.20637c.01609.01775.02656.02384.02692.03046C7.68154,30.15444,7.67607,30.15926,7.43433,30.12594Zm9.39986-.35834a2.25932,2.25932,0,0,0-.43968.67308c-.03443.07982-.08527.05334-.13166.05355-.48224.00222-.9645.00138-1.44676.00138s-.96456-.00361-1.44675.00275c-.10812.00143-.13263-.03024-.12932-.13337.00791-.24589.00511-.49224.00105-.73834-.00127-.076.01566-.1018.09856-.09873.11877.00445.27884.05461.34714-.01954.07351-.07988.0205-.23858.02116-.36263.00247-.46215-.00072-.92436.00251-1.38651.00061-.087-.00545-.15016-.1161-.12739-.10831.0223-.129-.02473-.12462-.12739.01009-.23867.01259-.4783.00189-.71688-.00372-.08316.01926-.09476.08622-.09073.04507.0027.09041.00048.13562.00048.22248,0,.21705-.00011.22151-.21829.0019-.09243-.021-.13041-.11509-.11362-.07361.01314-.0899-.02245-.09286-.09285-.016-.38169-.01816-.38164.36863-.38164.13564,0,.27178.00731.40675-.00217.11407-.008.13921.05715.11227.13629-.03829.1124.115.28831-.09851.33624-.07307.01642-.10847.01245-.10508.10636.00826.22946.001.22968.22329.22968.20992,0,.20992,0,.20992-.21315,0-.2311-.00357-.46226.00177-.6932.00211-.09079-.01258-.14567-.11922-.12644-.08527.01542-.10853-.02182-.11-.10731-.00633-.36718-.00938-.36713.35959-.36713.14569,0,.29161.00493.437-.00185.08709-.004.13269.01186.11826.11192a.67106.67106,0,0,0-.00025.18046c.017.131-.00808.21585-.16749.18465-.05964-.01165-.07651.01748-.076.07548.00239.29138-.00074.58277.00186.87409.00131.14673.12513.08666.17839.07575.09078-.01859.229.10027.27142-.07543.0103-.04274-.00362-.09079.00264-.13512.0129-.09127-.01738-.13216-.113-.11463-.07628.014-.09972-.01567-.10148-.0964-.00828-.37814-.01124-.37809.36651-.37809.14065,0,.2814.00318.42193-.00127.07-.00223.10154.01684.096.09206a1.25588,1.25588,0,0,0,.00033.2258c.01217.11336-.00727.18614-.1457.15928-.03537-.00688-.05389-.00122-.05565.05313-.009.27761-.01225.28746.26248.27337.14561-.00752.18543.03009.17563.17543-.01452.21506-.00805.43191-.00168.6477.0026.08878-.01493.13407-.11284.11574-.0962-.018-.12719.01886-.12624.1204q.00783.82878,0,1.65771c-.00095.10175.02971.13263.12665.12214a1.08975,1.08975,0,0,1,.21069.00011c.04621.00408.12118-.03305.13335.021A.21791.21791,0,0,1,16.83419,29.7676Zm.898,1.90449c-.1252-.00291-.25053-.00084-.37922-.00084a.44409.44409,0,0,1,.06187-.23248c.0417-.0901.01993-.13227-.06933-.14535-.14483-.02124-.14742-.08194-.09223-.20684.11535-.26119.20843-.53218.31769-.81752l.37942.96313c-.07.06075-.2.031-.23292.1142-.03167.08.04869.16463.07556.24858.02035.06351-.00039.07855-.06082.07712Zm.81567.76911c-.18949.01806-.17.12151-.10852.24816.02123.04375.0345.09126.05435.145h-.46807a.51276.51276,0,0,1,.07374-.22713c.03973-.081.02559-.132-.06944-.14259-.14662-.01642-.154-.085-.10115-.20865.11065-.25875.20657-.52381.32047-.81688.12824.32189.24257.61046.35841.8984.0255.06338-.00085.09808-.05977.10369Zm.14742-.77657c.01717-.05467.0278-.09259.04091-.12972.06713-.19.06794-.19138-.11621-.2676-.04786-.01981-.07055-.03194-.04538-.09349.11978-.29324.2327-.58923.3566-.906.12295.31839.23352.61793.356.91254.03038.073-.01122.08184-.04957.08618-.19641.02214-.18006.12713-.11413.26326a.17875.17875,0,0,1,.0292.13486Zm5.068,5.08616a.1316.1316,0,0,1-.09061.14529c-.67008.304-1.33558.6182-2.00539.92288a.504.504,0,0,1-.4236-.00562c-.65967-.302-1.31609-.61121-1.97723-.9099a.1605.1605,0,0,1-.11072-.17771q.00456-1.49928,0-2.99861c-.00039-.11686.00222-.21357.13621-.25917a.83676.83676,0,0,0,.17155-.11617v3.02493c.064.00021.08356-.04735.11294-.07659.52667-.52465,1.0498-1.05286,1.58007-1.57381.08335-.08189.07483-.11923-.0027-.19545-.45839-.45076-.91142-.907-1.36445-1.3632-.02323-.02342-.08619-.04068-.04869-.09143a2.26069,2.26069,0,0,1,.17274-.19842.26932.26932,0,0,1,.056.04264q.65556.65358,1.31178,1.30944c.04508-.01684.023-.05848.02309-.0883.00162-.432-.00241-.864.00372-1.29588.00145-.1018-.03038-.12278-.12547-.12156-.39016.00514-.78042.00217-1.18371.00217.046-.097.08629-.18057.12523-.26479.03253-.0704.09576-.0419.14552-.042q1.28835-.0027,2.57673-.00133c.26622,0,.53252.0036.7986-.002.08983-.0019.11977.01912.11955.11526q-.0048,2.1097-.00118,4.21933Z" transform="translate(-0.40381 -0.28298)"/><path d="M12.33122,21.30765A2.439,2.439,0,0,0,13.73131,22.367a.23433.23433,0,0,1,.18913.205c.09275.38709.2011.77037.3005,1.15588a.17351.17351,0,0,0,.14494.13888,12.17529,12.17529,0,0,0,1.83742.33906,18.354,18.354,0,0,0,2.06727.112,17.17415,17.17415,0,0,0,2.30525-.15049,12.24357,12.24357,0,0,0,1.49511-.29466.19978.19978,0,0,0,.16061-.16357c.10606-.40913.22125-.816.32413-1.22591a.15153.15153,0,0,1,.11878-.1284,2.347,2.347,0,0,0,.518-.22538,3.66518,3.66518,0,0,0,1.36175-1.67,1.57108,1.57108,0,0,0-.76566-2.08575q-.05874-.02719-.11957-.04948a3.40764,3.40764,0,0,0-1.90966-.1954.24729.24729,0,0,1-.26582-.05609,2.45339,2.45339,0,0,0-2.80725-.36517.47644.47644,0,0,0-.34222-.37581.38092.38092,0,0,1,.06048-.0357.51065.51065,0,0,0,.041-.96578.09847.09847,0,0,1-.07247-.11171.64635.64635,0,0,0-.00038-.15043c-.02287-.1462.02331-.21521.18175-.18757.03941.00684.11041.0266.12126-.023a.504.504,0,0,0-.00278-.23757c-.01441-.05053-.09145-.027-.1367-.02113-.129.01663-.19121-.02342-.16215-.16034.02823-.13316-.0482-.14169-.15083-.13793-.09233.00334-.19036-.016-.15815.13067.03049.13889-.02759.18878-.16256.16585a.30487.30487,0,0,0-.07522-.00032c-.14135.0115-.0504.11463-.06567.17443-.01335.05233-.03436.1107.06779.1142.23526.00794.23506.01356.23555.2552a.2289.2289,0,0,0,.00019.03009.1372.1372,0,0,1-.093.17029l-.01381.00329a.48981.48981,0,0,0-.28687.57667c.04581.236.22194.327.42007.41336a.46137.46137,0,0,0-.36434.37216,2.479,2.479,0,0,0-1.40979-.26707,2.19563,2.19563,0,0,0-1.43094.669.11315.11315,0,0,1-.12444.03613,4.97614,4.97614,0,0,0-2.28252.14306,1.42123,1.42123,0,0,0-.74249.47524,1.2127,1.2127,0,0,0-.1523,1.13787A5.37679,5.37679,0,0,0,12.33122,21.30765Zm11.58706-2.53826a1.08572,1.08572,0,0,1,.33958,1.22708c-.02433.05593-.03505.10773-.121.05445a6.91566,6.91566,0,0,0-2.17377-.82669c-.13639-.03045-.19615-.057-.16013-.22432a.90468.90468,0,0,0-.09641-.65591A2.78788,2.78788,0,0,1,23.91828,18.76939Zm-5.10239-.88548a1.78846,1.78846,0,0,1,.64539-.21923,2.25869,2.25869,0,0,1,1.29023.14513,1.02133,1.02133,0,0,1,.65939.919c0,.03665.00009.04168,0,.04672-.00762.28815-.02976.30944-.31071.26495a18.0511,18.0511,0,0,0-2.23158-.23979c-.055-.0018-.078-.013-.08312-.07225-.02111-.24334-.04822-.4861-.0716-.72922C18.707,17.92735,18.77158,17.90982,18.81589,17.88391Zm-2.888-.16452A2.7024,2.7024,0,0,1,16.5556,17.63a2.3873,2.3873,0,0,1,1.00478.22977.19432.19432,0,0,1,.13114.24144c-.03331.19132-.03427.38826-.05093.5826-.00595.06933-.02826.11531-.1167.11722a16.707,16.707,0,0,0-2.29211.24837c-.08553.01377-.10121-.00662-.11585-.08083a1.06663,1.06663,0,0,1,.812-1.24922Zm5.92374,5.97567a16.25536,16.25536,0,0,1-7.2551-.00138,16.6158,16.6158,0,0,1,7.25512.00138ZM12.4439,18.61917a1.86624,1.86624,0,0,1,.65164-.24842,4.52471,4.52471,0,0,1,1.43261-.05964c.05733.00757.11333.0251.18077.04052a1.25445,1.25445,0,0,0-.17446.46819.35813.35813,0,0,0,.01642.18693c.05009.14974-.00574.19317-.15274.22638a7.79745,7.79745,0,0,0-1.82678.62848c-.06217.03157-.12473.06261-.18519.09725-.16027.09185-.15985.09259-.24513-.0785a.87723.87723,0,0,1,.23315-1.21848Q12.408,18.63892,12.4439,18.61917Z" transform="translate(-0.40381 -0.28298)"/><path d="M26.73952,36.00552v.01282c0,.04438.0006.0795.00329.108A.50364.50364,0,0,0,26.73952,36.00552Z" transform="translate(-0.40381 -0.28298)"/><path d="M28.8885,31.12027a3.17883,3.17883,0,0,0,.3697-.05631.7434.7434,0,0,0,.63574-.49589c.08891-.26315.21578-.51348.32469-.77a.39663.39663,0,0,0-.10566-.55088l-.02116-.01339a3.11679,3.11679,0,0,0-1.18021-.59188c-.09818-.03114-.109-.06944-.10879-.15165q.00285-1.08508.0011-2.17007c0-.25314.00015-.25912.2567-.25309.10791.00249.13244-.03029.131-.13411-.006-.437-.00505-.87409-.00049-1.31108.001-.094-.018-.12814-.1216-.12761q-1.30352.00668-2.60708.00037c-.09694-.00042-.12783.022-.12612.12321.00627.37163.00177.74342.00295,1.11515.00032.10451-.03017.23407.01974.30653.04956.07183.18671.01955.2851.02278.06091.002.08836.01144.0881.08205q-.00384,1.0398-.00028,2.07965c.00021.07066-.01882.09593-.093.09529a6.88132,6.88132,0,0,0-.81037.03586,5.21991,5.21991,0,0,0-1.11532.21273c-.04977.01689-.10222.02166-.10131.10207.00436.38614.002.77239.002,1.16806.18227-.05085.35285-.10424.52627-.14571a7.98705,7.98705,0,0,1,1.48249-.19286c.08233-.00392.113.01679.11015.1054-.00666.20574-.008.412.00039.61767.00417.10181-.03286.14074-.12881.15356a1.66667,1.66667,0,0,0-.56367.17914.15621.15621,0,0,0-.09627.1347c-.03444.28788-.07355.57534-.11989.86153a.37974.37974,0,0,0,.12666.37253,4.72668,4.72668,0,0,0,.77629.56036c.046.052.0256.1151.02567.173.00126,1.11748.00341,2.235-.00219,3.35255-.00069.14079.03133.18846.18012.1865.62129-.00832,1.24275-.0035,1.86414-.0035q.00433-.98649.00849-1.973c.001-.26537.00016-.53074.00016-.815a3.22863,3.22863,0,0,1,.64312.29466.721.721,0,0,0-.03978,1.11759.422.422,0,0,1,.15946-.373,2.41294,2.41294,0,0,1,.24522-.197.23941.23941,0,0,0,.10581-.15546c.05236-.28391.0836-.57333.15841-.851a.34021.34021,0,0,0-.18788-.41723,4.99432,4.99432,0,0,0-.9909-.48191c-.06663-.026-.096-.04958-.09511-.12416.00381-.33148.00331-.66306.00025-.99454C28.80191,31.15671,28.81294,31.12636,28.8885,31.12027Zm-.07035-1.22289c.007-.02416.07013.00667.10722.02071a2.29122,2.29122,0,0,1,.38733.17951c-.16456.01435-.29133.02723-.4184.03533-.0303.00191-.08185.02018-.08681-.02855A.552.552,0,0,1,28.81815,29.89738Z" transform="translate(-0.40381 -0.28298)"/><path d="M23.33084,25.1856c-.11934-.05043-.119.01155-.13017.08877-.005.03443-.01384.06823-.02091.10234a5.028,5.028,0,0,0-.04926,2.27268.74712.74712,0,0,1-.04434.52619.41708.41708,0,0,1-.64694.17628.86686.86686,0,0,1-.21878-.22512,6.53692,6.53692,0,0,1-.38745-.91588c.40175-.00186.54252-.12522.615-.51465a2.3468,2.3468,0,0,0-.016-.83547.71761.71761,0,0,0-.2389-.41861.93051.93051,0,0,0-1.2586-.161c-.12753.09334-.12757.18126.00819.26289a1.35573,1.35573,0,0,0,.25636.12077.16981.16981,0,0,1,.12654.2041l-.00044.00184c-.01488.10382-.08963.1356-.1859.13438a.809.809,0,0,0-.11986.008c-.17947.02484-.2106.06737-.18456.24778.02854.19789-.01943.25431-.2178.25563-.05525.00037-.11055.00164-.16573-.00021a.82076.82076,0,0,1-.82508-.57,1.48062,1.48062,0,0,1-.02026-.36273,1.92057,1.92057,0,0,0-.41406.27877.35429.35429,0,0,0-.10491.36676.9258.9258,0,0,0,.33946.49674c.21361.18979.46939.32051.69691.49128.05623.04222.05523.06378.00859.11187a.61137.61137,0,0,1-.74686.15642c-.17018-.06976-.19393-.047-.198.14074a2.62615,2.62615,0,0,0,.10275.57259c.015.07511.06256.07294.12241.06706a2.06335,2.06335,0,0,0,1.24377-.52068c.06443-.05954.09345-.09455.144.02542a1.15656,1.15656,0,0,0,.73727.69553c-.09323.00551-.14788.00355-.20062.01266-.35015.06049-.57941.24509-.39648.64654a.39644.39644,0,0,1-.02257.28847c-.02248.08925-.08426.10858-.15945.05689-.10288-.07077-.20072-.149-.30413-.21887a.17918.17918,0,0,0-.16624-.04089.55181.55181,0,0,0-.30825.57624.52141.52141,0,0,0,.57762.2881,2.94719,2.94719,0,0,1,.5917-.147c.21553-.0277.2533-.09169.24386-.31182a1.33744,1.33744,0,0,1-.02964-.31273.19522.19522,0,0,1,.16173-.1731c.07685-.01717.17654-.061.22262.00413a1.34519,1.34519,0,0,0,.269.23269.80062.80062,0,0,1,.31413.61958,2.09568,2.09568,0,0,1-.08848.52862c-.02572.10594-.03647.22194.09589.28317a.59411.59411,0,0,0,.38983-.03575.08431.08431,0,0,0,.014-.05355,2.064,2.064,0,0,1,.13068-.73288.41648.41648,0,0,0-.12278-.52958.286.286,0,0,1-.05427-.07119c-.21133-.32417-.207-.58933.24842-.69188a.585.585,0,0,0,.47839-.75988c-.06234-.33429-.18416-.65051-.27223-.97675a.73237.73237,0,0,1,.16627-.70692c.109-.13041.21449-.264.32785-.39048a.29185.29185,0,0,0,.09985-.317.86726.86726,0,0,1,.06148-.459C23.607,25.184,23.45254,25.23708,23.33084,25.1856Z" transform="translate(-0.40381 -0.28298)"/><path d="M28.59667,36.24118q-.82.00246-1.64.00005c-.16321-.00064-.20385-.00927-.21382-.11489a.12046.12046,0,0,1-.03661.07675c-.06005.05334-.19983.01685-.30433.02008a.0884.0884,0,0,1-.015-.00006c-.06324-.00921-.08682.01288-.08634.08136q.00453.64762.0002,1.2953c-.00044.07008.01717.09545.09191.09524q1.37066-.0035,2.74128-.00011c.0727.00021.09393-.02177.09345-.09365q-.00424-.64761.00005-1.29529c.00044-.06653-.02-.08152-.08459-.08528-.11581-.00678-.23648.037-.34753-.02771A.25372.25372,0,0,1,28.59667,36.24118Z" transform="translate(-0.40381 -0.28298)"/><path d="M26.72752,32.48437q.00159,1.70189.00208,3.40388a1.10385,1.10385,0,0,0,.00992.11727q-.00006-1.67877-.00055-3.35757A.406.406,0,0,0,26.72752,32.48437Z" transform="translate(-0.40381 -0.28298)"/><path d="M26.93112,36.19647c-.14879.002-.18081-.04571-.18012-.1865.0056-1.11754.00345-2.23507.00219-3.35255-.00007-.058.02032-.12109-.02567-.17305a.406.406,0,0,1,.01145.16357q.00107,1.67885.00055,3.35758a.50413.50413,0,0,1,.00329.12082c.01.10562.05061.11425.21382.11489q.82.00333,1.64-.00005a.25379.25379,0,0,0,.19859-.04821C28.17387,36.193,27.55241,36.18815,26.93112,36.19647Z" transform="translate(-0.40381 -0.28298)"/><path d="M9.54518,36.24112q-.81975.00246-1.63949.00006c-.20747-.0008-.21773-.014-.21773-.2221q-.00008-1.21833-.00057-2.43667a.406.406,0,0,0-.01144-.16357q.00159,1.24956.00314,2.49917c.00033.30113,0,.30537-.29807.30272-.0964-.00085-.128.02135-.12644.123q.00917.60965,0,1.21944c-.00173.11.03664.13264.13806.13227q1.33245-.00518,2.66491.00005c.09008.00032.12045-.01854.1192-.11463q-.00822-.63228.00055-1.26462c.00136-.08862-.03247-.09016-.1012-.09561-.11073-.00885-.227.04062-.33238-.02771A.25354.25354,0,0,1,9.54518,36.24112Z" transform="translate(-0.40381 -0.28298)"/><path d="M7.86544,36.19626c-.1361.00159-.16662-.04068-.16572-.17019.00564-.81137.0033-1.62286.00191-2.43428-.00011-.0579.02032-.121-.02568-.173a.406.406,0,0,1,.01144.16357q.00119,1.21833.00057,2.43667c0,.20811.01026.2213.21773.2221q.81975.00317,1.63949-.00006A.25354.25354,0,0,0,9.7437,36.193C9.11761,36.193,8.49147,36.18884,7.86544,36.19626Z" transform="translate(-0.40381 -0.28298)"/><path d="M18.29762,38.59707a.64223.64223,0,0,0-.00093-.86573A.61871.61871,0,0,0,18.29762,38.59707Z" transform="translate(-0.40381 -0.28298)"/><path d="M21.74082,34.56408c-.06494.06425-.03583.0928.01137.1401q.57432.57516,1.14567,1.15334c.17971.18094.35988.36152.55113.55358V32.85944C22.86934,33.439,22.3071,34.00357,21.74082,34.56408Z" transform="translate(-0.40381 -0.28298)"/><path d="M21.606,36.00531c0,.46215-.0006.9243.00093,1.38645.00014.0455-.02834.12993.07742.08152.54554-.2498,1.09125-.49918,1.60631-.73473L21.606,35.046Z" transform="translate(-0.40381 -0.28298)"/><path d="M21.29708,37.498V35.06622c-.55111.551-1.112,1.11171-1.67051,1.67C20.169,36.98359,20.72846,37.23868,21.29708,37.498Z" transform="translate(-0.40381 -0.28298)"/><path d="M21.62739,34.22948l1.50781-1.51067c-.48326,0-.95438.00212-1.42543-.00185-.09165-.0008-.10578.037-.10523.11631.003.44627.00135.89258.00186,1.3389C21.60642,34.19457,21.59623,34.22429,21.62739,34.22948Z" transform="translate(-0.40381 -0.28298)"/><path d="M27.53789,2.09569A25.29617,25.29617,0,0,0,6.63967,13.11562H48.43691A25.29662,25.29662,0,0,0,27.53789,2.09569Z" transform="translate(-0.40381 -0.28298)"/><path d="M27.53789,52.746A25.29978,25.29978,0,0,0,48.56621,41.53736H6.50952A25.3,25.3,0,0,0,27.53789,52.746Z" transform="translate(-0.40381 -0.28298)"/><path d="M50.59692,13.11562A27.13531,27.13531,0,0,0,8.20389,8.3835L8.17846,8.41q-.25861.26329-.5104.53318c-.02659.0286-.05212.05816-.07861.08687-.14879.16134-.29668.32353-.4416.48842-.04174.04752-.08178.09646-.1232.14424-.12792.14762-.25579.29535-.38058.44573-.06574.07929-.12909.16065-.194.24069-.0982.12114-.19741.24143-.2935.36432q-.23946.306-.4703.61888-.09511.12888-.18863.25891l-.00259.00366q-.09232.12831-.18311.2578l-.005.007q-.08971.12792-.178.2569l-.00688.01012q-.08716.12744-.17289.256l-.009.0135q-.08445.12681-.16759.25462l-.01134.01743q-.08184.12617-.1624.25335l-.01308.02066q-.05459.08628-.10822.17326l-.0491.0786-.01531.02485q-.07666.12465-.15212.25022l-.01706.0285q-.0742.12387-.14715.24858l-.019.03252q-.07158.12283-.142.24652l-.021.037q-.069.1218-.13687.2443l-.02273.04126q-.0665.12078-.13184.24222l-.02436.0455q-.064.11965-.127.24006l-.02595.04989q-.0615.11839-.12194.23746l-.02761.055q-.05912.11719-.11712.235l-.02881.05885q-.05682.11616-.11267.233l-.03.06309q-.05449.11513-.10816.23073l-.03088.06722q-.05244.11409-.10393.22877l-.03146.07071q-.05053.11355-.10011.22766l-.03146.0731q-.0487.11322-.09657.227l-.03146.07564q-.04711.1133-.09338.227l-.03049.076q-.04585.114-.09079.2285l-.0294.07607q-.04466.11512-.08846.23068l-.02765.0742q-.04385.11728-.08676.23492l-.02511.06992q-.04338.12045-.08581.24132l-.02192.06357q-.04323.12474-.08544.2499l-.01785.05382q-.04355.13078-.086.262l-.01261.03972q-.04449.139-.08772.27862l-.006.02q-.14159.46044-.26669.92769c-.03692.13746-.06913.27677-.10393.41512-.0437.17363-.089.34663-.12929.52153-.04105.178-.07691.35786-.11442.53716-.02833.13549-.05869.27024-.08491.40642-.0403.20833-.07526.41846-.11075.62848-.018.10678-.03777.21288-.05445.32009-.03745.23889-.0695.47958-.10065.72053-.00979.07649-.02108.15255-.03024.2292-.033.27332-.06033.54822-.08507.82387-.00365.04132-.00816.08237-.01165.12374-.06552.76894-.1026,1.54605-.1026,2.332a27.07867,27.07867,0,0,0,1.67,9.39257q.02629.07125.05307.14232l.04889.13a26.87615,26.87615,0,0,0,2.18443,4.4516,27.18783,27.18783,0,0,0,6.148,7.009l.0427.03443q.0889.07143.17855.142l.10615.08353q.05839.04561.11717.0909.08454.06531.1695.13014l.05572.04216a27.07285,27.07285,0,0,0,7.35386,3.95073c.03353.01181.06642.02479.1.03644.27543.09571.55389.18481.8333.27178.06743.021.13412.04391.20176.06441.25393.07691.51051.14741.76751.217.09492.02575.189.0535.28434.07818.23794.06161.47815.11717.71857.17247.11611.0267.23148.0553.34806.08051.23015.04969.46231.0936.69453.1374.12712.024.25372.04974.38137.07194.23275.04041.46729.07521.702.10964.12654.01854.2525.03867.37952.05546.24816.03289.498.05991.74823.086.11087.01149.22131.02447.33254.03459.28084.02585.56338.04539.84665.06255.07538.00451.15043.01023.226.01409.3355.01759.67275.028,1.01138.03332l.03189.001c.00625.0001.01234-.00006.01854,0,.12686.00175.25266.00789.37994.00789a27.05336,27.05336,0,0,0,10.33155-2.03659l.1034-.043q.08526-.03552.17029-.07146.11268-.04791.2248-.09672l.04794-.02081a27.05694,27.05694,0,0,0,8.28547-5.6559l.0455-.04544q.07818-.07851.15578-.15764l.09932-.1017q.04989-.05133.09936-.103.0766-.07986.15266-.16007l.04371-.04635a27.19156,27.19156,0,0,0,6.67532-12.4582l.00683-.02913q.06378-.27744.12177-.55713l.01747-.08369q.05253-.25679.1-.51538c.00789-.0427.01589-.08539.02357-.12814q.04347-.24225.08242-.486c.00837-.05218.01679-.1043.0249-.15658q.03654-.23606.06876-.47343.01136-.0828.02224-.16564.03131-.23955.05815-.48037l.01679-.15292q.02718-.25464.04953-.51057l.00953-.1124q.02369-.284.04153-.56941l.00244-.04026c.03379-.55452.053-1.113.053-1.67608A27.0049,27.0049,0,0,0,50.59692,13.11562ZM48.56621,41.53736a25.32731,25.32731,0,0,1-42.095-28.17618c.01976-.0295.03925-.05922.05911-.08867.0357-.05286.07331-.10429.10933-.15689A25.3263,25.3263,0,0,1,48.56621,41.53736Z" transform="translate(-0.40381 -0.28298)"/></svg>