<svg id="Capa_1" data-name="Capa 1" xmlns="http://www.w3.org/2000/svg" viewBox="0 0 576 512"><defs><style>.cls-1{fill:#010002;}</style></defs><path class="cls-1" d="M237.05626,377.63488l13.22325,76.9855c3.5657,20.80187,13.17705,43.87178,21.4675,51.52491a22.57578,22.57578,0,0,0,30.09215-.027c8.31824-7.66974,17.949-30.74931,21.50822-51.54913l13.19784-76.99864,186.08588-65.7502c19.8874-7.02754,34.26249-28.05976,32.07658-46.99s-20.97322-32.57278-41.97836-30.48687L329.60153,252.52967,321.4592,93.882l46.218-24.7775c18.60451-9.95334,33.93847-26.60857,34.25581-37.15864.31623-10.56222-16.43007-17.27027-37.412-14.99357l-58.11364,6.308s-4.42075-6.84431-9.86838-15.30209c-5.44653-8.44566-14.241-8.43466-19.64348.04048l-9.76848,15.347-58.08549-6.32853c-20.98694-2.27549-37.74476,4.42823-37.43793,14.97838.31233,10.54465,15.634,27.18509,34.24776,37.14987l46.242,24.79384-8.08923,158.63344-183.15125-18.228c-20.999-2.09575-39.78945,11.54628-41.96386,30.48262-2.17439,18.9231,12.19841,39.97777,32.10087,47.01047Z"/></svg>